<svg width="37" height="47" viewBox="0 0 37 47" fill="none" xmlns="http://www.w3.org/2000/svg">
<path opacity="0.4" d="M33.9222 30.6633C32.0588 27.903 29.6465 27.2552 27.7082 26.7348C25.6176 26.1734 24.4248 25.8514 24.1266 23.3589C24.1843 23.3095 24.2428 23.2611 24.2992 23.2099C25.4983 22.1233 26.3079 20.7282 26.6959 19.1037C26.7914 19.0317 26.8776 18.9445 26.948 18.8397C31.1068 12.6465 29.7744 8.02828 28.6099 5.82662C26.7527 2.31484 22.7872 0.0278145 18.5072 0C18.5025 0 18.4977 0 18.4929 0C14.2129 0.0277227 10.2473 2.31475 8.38994 5.82653C7.2255 8.0281 5.89316 12.6463 10.0519 18.8397C10.1225 18.9449 10.2087 19.0328 10.3045 19.1049C10.6927 20.729 11.5021 22.1236 12.7009 23.2099C12.7573 23.261 12.8157 23.3094 12.8735 23.3589C12.5751 25.8514 11.3825 26.1734 9.29185 26.7348C7.35355 27.2552 4.94122 27.903 3.07784 30.6633C1.06529 33.6448 0.0869141 38.6282 0.0869141 45.8984C0.0869141 46.5068 0.580139 47 1.18848 47H35.8117C36.42 47 36.9132 46.5068 36.9132 45.8984C36.9132 38.6282 35.9349 33.6448 33.9222 30.6633ZM11.2902 9.01923C10.621 9.89708 10.186 11.2983 10.065 14.073C9.14029 11.4543 9.21933 8.97067 10.3375 6.85658C11.8197 4.05412 15.023 2.22809 18.5001 2.20312C21.9771 2.22809 25.1803 4.05412 26.6625 6.85649C27.7739 8.95791 27.8593 11.4242 26.9523 14.0254C26.8658 11.2182 26.4973 9.75388 25.7033 8.9826C24.5356 7.84854 22.6434 8.36728 21.9414 8.70354C20.2442 9.51621 17.0008 9.66355 15.0103 8.73254C14.3469 8.42236 12.2349 7.77978 11.2902 9.01923ZM12.2425 16.7666C12.2425 16.7602 12.2424 16.7538 12.2423 16.7473C12.1591 11.9998 12.6032 10.8432 12.8616 10.5633C12.9751 10.4404 13.8353 10.6931 14.3823 10.8443C17.2149 11.6276 19.3875 11.7041 22.5742 10.8139C23.1326 10.6578 23.7669 10.2239 24.132 10.5268C24.428 10.7725 24.8415 11.9743 24.7579 16.7474C24.7578 16.7538 24.7577 16.7603 24.7577 16.7667C24.7577 21.1648 21.514 23.1679 18.5001 23.1679C15.4862 23.1679 12.2425 21.1648 12.2425 16.7666ZM23.2276 26.8855L18.5001 31.8791L13.7725 26.8855C14.2549 26.3279 14.643 25.5986 14.8817 24.6198C15.9905 25.1103 17.2208 25.371 18.5001 25.371C19.7794 25.371 21.0096 25.1103 22.1184 24.6198C22.3572 25.5986 22.7453 26.3279 23.2276 26.8855ZM30.6073 44.7969V39.4312C30.6073 38.8228 30.114 38.3296 29.5057 38.3296C28.8974 38.3296 28.4041 38.8228 28.4041 39.4312V44.7969H8.59584V39.4312C8.59584 38.8228 8.10262 38.3296 7.49428 38.3296C6.88594 38.3296 6.39272 38.8228 6.39272 39.4312V44.7969H2.29775C2.38661 38.5854 3.24151 34.3586 4.90395 31.8959C6.30707 29.8174 8.11492 29.3319 9.86319 28.8626C10.5895 28.6675 11.3462 28.4635 12.0526 28.1379L17.6985 34.1016C17.906 34.3208 18.1851 34.4314 18.4648 34.4314C18.4766 34.4314 18.4883 34.4301 18.5001 34.4297C18.5118 34.4301 18.5236 34.4314 18.5353 34.4314C18.815 34.4314 19.0942 34.3207 19.3017 34.1016L24.9475 28.1379C25.654 28.4635 26.4107 28.6675 27.137 28.8626C28.8852 29.3319 30.6932 29.8174 32.0962 31.8959C33.7586 34.3586 34.6136 38.5854 34.7024 44.7969H30.6073Z" fill="white"/>
</svg>
