<svg width="36" height="47" viewBox="0 0 36 47" fill="none" xmlns="http://www.w3.org/2000/svg">
<path opacity="0.4" d="M32.5555 29.4659C31.564 28.6713 30.4036 28.1793 29.2307 27.8188V11.3759C29.2307 7.87516 27.9743 4.92408 25.5974 2.84166C23.5058 1.00921 20.7028 0 17.7047 0C14.7066 0 11.9036 1.00921 9.81199 2.84157C7.435 4.92398 6.17866 7.87507 6.17866 11.3758V27.8187C5.00587 28.1793 3.84546 28.6712 2.85387 29.4658C0.933482 31.0048 0 33.3604 0 36.6671V45.8984C0 46.5068 0.493225 47 1.10156 47H34.308C34.9163 47 35.4095 46.5068 35.4095 45.8984V36.6672C35.4095 33.3605 34.476 31.0049 32.5555 29.4659ZM8.3817 11.3759C8.3817 5.07361 13.2144 2.20312 17.7047 2.20312C20.1685 2.20312 22.4559 3.01837 24.1457 4.49869C26.0311 6.15048 27.0277 8.52848 27.0277 11.3758V27.2491C26.9999 27.2427 26.9717 27.2359 26.9439 27.2296C23.7934 26.5002 22.1222 25.9962 21.9039 23.5019C22.492 22.9576 23.0328 22.2973 23.514 21.5286C25.1497 18.9158 26.0143 15.1384 26.0143 10.6047C26.0143 10.0294 25.5716 9.55101 24.9979 9.50648C23.0925 9.35869 21.2735 8.54344 19.876 7.21074C19.6208 6.96747 19.2646 6.86108 18.918 6.92433C18.5712 6.98758 18.2757 7.21303 18.1229 7.53074C16.7286 10.4318 13.7612 12.3063 10.5631 12.3064L10.5044 12.3062C10.212 12.3023 9.92875 12.4193 9.72046 12.626C9.51218 12.8328 9.39514 13.1142 9.39514 13.4077C9.39514 16.8742 10.2173 19.8629 11.7726 22.0509C12.2741 22.7564 12.8451 23.3595 13.4646 23.8492C13.1236 26.0463 11.4644 26.5352 8.46542 27.2295C8.43779 27.2359 8.4096 27.2426 8.38179 27.249L8.3817 11.3759ZM21.6466 20.3596C20.5301 22.1432 19.0554 23.1254 17.4936 23.1252C17.4935 23.1252 17.4937 23.1252 17.4936 23.1252C14.7981 23.1248 11.9424 20.0951 11.627 14.4548C14.7919 14.1284 17.6759 12.3625 19.4236 9.69751C20.7223 10.6453 22.2216 11.2884 23.7972 11.5709C23.6622 16.1821 22.5713 18.8827 21.6466 20.3596ZM15.4683 24.9724C16.1245 25.206 16.8051 25.3282 17.4928 25.3283C18.328 25.3283 19.1372 25.1567 19.9015 24.8266C20.2454 26.1415 20.9866 27.1497 22.1493 27.8853C22.8678 28.3399 23.6953 28.6516 24.558 28.9018C23.6336 32.2731 20.5302 33.793 17.7046 33.793C14.879 33.793 11.7757 32.273 10.8512 28.9018C11.7138 28.6515 12.5415 28.3399 13.26 27.8853C14.3793 27.177 15.1086 26.2165 15.4683 24.9724ZM33.2063 44.7969H29.2307V38.8791C29.2307 38.2708 28.7375 37.7775 28.1291 37.7775C27.5208 37.7775 27.0276 38.2708 27.0276 38.8791V44.7969H8.3817V38.8791C8.3817 38.2708 7.88847 37.7775 7.28013 37.7775C6.6718 37.7775 6.17857 38.2708 6.17857 38.8791V44.7969H2.20303V36.6672C2.20303 31.073 5.19286 30.2518 8.71272 29.4339C9.22705 31.3605 10.3133 32.9767 11.8908 34.1443C13.5042 35.3385 15.5689 35.9962 17.7046 35.9962C19.8402 35.9962 21.905 35.3385 23.5184 34.1443C25.0959 32.9766 26.1821 31.3606 26.6965 29.4339C30.2164 30.2518 33.2063 31.0729 33.2063 36.6672V44.7969Z" fill="white"/>
</svg>
