<svg width="36" height="36" viewBox="0 0 36 36" fill="none" xmlns="http://www.w3.org/2000/svg">
<rect x="0.65918" y="0.0253906" width="35" height="35" rx="6" fill="#F1FBED"/>
<path d="M24.3408 12.0254H11.9775C11.2515 12.0254 10.6592 12.595 10.6592 13.2946V21.7562C10.6592 22.4534 11.2489 23.0254 11.9775 23.0254H24.3408C25.065 23.0254 25.6592 22.4577 25.6592 21.7562V13.2946C25.6592 12.5974 25.0695 12.0254 24.3408 12.0254ZM24.1588 12.8715L18.1871 18.6207L12.1638 12.8715H24.1588ZM11.5381 21.5809V13.4658L15.7709 17.5059L11.5381 21.5809ZM12.1596 22.1792L16.395 18.1016L17.8791 19.5181C18.0509 19.6821 18.3281 19.6816 18.4992 19.5168L19.9463 18.1237L24.1588 22.1792H12.1596ZM24.7803 21.5809L20.5678 17.5254L24.7803 13.4698V21.5809Z" fill="#57D211"/>
</svg>
