<svg width="36" height="36" viewBox="0 0 36 36" fill="none" xmlns="http://www.w3.org/2000/svg">
<rect x="0.65918" y="0.0253906" width="35" height="35" rx="6" fill="#F1FBED"/>
<path d="M23.174 13.1387L20.4544 10.4662C20.1651 10.1819 19.7865 10.0254 19.3883 10.0254H14.2105C13.3551 10.0254 12.6592 10.7482 12.6592 11.6367V23.4141C12.6592 24.3025 13.3551 25.0254 14.2105 25.0254H22.1079C22.9633 25.0254 23.6592 24.3025 23.6592 23.4141V14.3092C23.6592 13.8683 23.4823 13.4417 23.174 13.1387ZM22.3522 13.541H20.2464C20.1686 13.541 20.1053 13.4753 20.1053 13.3945V11.3331L22.3522 13.541ZM22.1079 24.1465H14.2105C13.8217 24.1465 13.5053 23.8179 13.5053 23.4141V11.6367C13.5053 11.2329 13.8217 10.9043 14.2105 10.9043H19.2592V13.3945C19.2592 13.9599 19.702 14.4199 20.2464 14.4199H22.813V23.4141C22.813 23.8179 22.4967 24.1465 22.1079 24.1465Z" fill="#57D211"/>
<path d="M21.1771 15.8848H14.972C14.7383 15.8848 14.5489 16.0815 14.5489 16.3242C14.5489 16.5669 14.7383 16.7637 14.972 16.7637H21.1771C21.4108 16.7637 21.6002 16.5669 21.6002 16.3242C21.6002 16.0815 21.4108 15.8848 21.1771 15.8848Z" fill="#57D211"/>
<path d="M21.1771 18.2285H14.972C14.7383 18.2285 14.5489 18.4253 14.5489 18.668C14.5489 18.9107 14.7383 19.1074 14.972 19.1074H21.1771C21.4108 19.1074 21.6002 18.9107 21.6002 18.668C21.6002 18.4253 21.4108 18.2285 21.1771 18.2285Z" fill="#57D211"/>
<path d="M17.0231 20.5723H14.972C14.7383 20.5723 14.5489 20.769 14.5489 21.0117C14.5489 21.2544 14.7383 21.4512 14.972 21.4512H17.0231C17.2567 21.4512 17.4462 21.2544 17.4462 21.0117C17.4462 20.769 17.2567 20.5723 17.0231 20.5723Z" fill="#57D211"/>
</svg>
