<svg width="39" height="39" viewBox="0 0 39 39" fill="none" xmlns="http://www.w3.org/2000/svg">
<path d="M19.5001 9.04568C18.4846 9.04568 17.6584 8.21953 17.6584 7.20404V2.72348C17.6584 1.70799 18.4846 0.881836 19.5001 0.881836C20.5156 0.881836 21.3417 1.70799 21.3417 2.72348V7.20404C21.3417 8.21953 20.5156 9.04568 19.5001 9.04568Z" fill="#57D211"/>
<path d="M13.353 10.693C12.6968 10.693 12.0853 10.3401 11.7573 9.77202L9.51705 5.89175C9.00921 5.0123 9.31168 3.88368 10.1911 3.37584C10.4709 3.21426 10.789 3.12891 11.1112 3.12891C11.7674 3.12891 12.3789 3.48188 12.7069 4.04992L14.9471 7.93019C15.455 8.80964 15.1525 9.93826 14.2731 10.4461C13.9933 10.6077 13.6752 10.693 13.353 10.693Z" fill="#57D211"/>
<path d="M8.85107 15.1937C8.52885 15.1937 8.21073 15.1083 7.931 14.9467L4.05072 12.7064C3.62469 12.4604 3.31999 12.0633 3.1927 11.5881C3.06541 11.1129 3.13064 10.6166 3.37664 10.1905C3.70464 9.6225 4.3161 9.26953 4.97229 9.26953C5.29451 9.26953 5.61263 9.35489 5.89236 9.51646L9.77264 11.7567C10.6521 12.2646 10.9546 13.393 10.4467 14.2726C10.1187 14.8407 9.50726 15.1937 8.85107 15.1937Z" fill="#57D211"/>
<path d="M2.72397 21.3415C1.70847 21.3415 0.882324 20.5153 0.882324 19.4998C0.882324 18.4844 1.70847 17.6582 2.72397 17.6582H7.20452C8.22002 17.6582 9.04617 18.4844 9.04617 19.4998C9.04617 20.5153 8.22002 21.3415 7.20452 21.3415H2.72397Z" fill="#57D211"/>
<path d="M4.97223 29.7298C4.31605 29.7298 3.70459 29.3768 3.37659 28.8088C2.86893 27.9293 3.17122 26.8007 4.05067 26.2929L7.93094 24.0526C8.21067 23.891 8.5288 23.8057 8.85102 23.8057C9.50721 23.8057 10.1187 24.1586 10.4467 24.7267C10.6927 25.1527 10.7579 25.649 10.6306 26.1242C10.5033 26.5994 10.1984 26.9966 9.77259 27.2426L5.89231 29.4829C5.61258 29.6444 5.29446 29.7298 4.97223 29.7298Z" fill="#57D211"/>
<path opacity="0.7" d="M11.1112 35.8698C10.789 35.8698 10.4709 35.7844 10.1911 35.6229C9.31168 35.115 9.00921 33.9864 9.51705 33.107L11.7573 29.2267C12.0853 28.6586 12.6968 28.3057 13.353 28.3057C13.6752 28.3057 13.9933 28.391 14.2731 28.5526C15.1525 29.0604 15.455 30.1889 14.9471 31.0685L12.7069 34.9488C12.3789 35.5168 11.7674 35.8698 11.1112 35.8698Z" fill="#57D211"/>
<path opacity="0.6" d="M19.5001 38.117C18.4846 38.117 17.6584 37.2908 17.6584 36.2753V31.7948C17.6584 30.7793 18.4846 29.9531 19.5001 29.9531C20.5156 29.9531 21.3417 30.7793 21.3417 31.7948V36.2753C21.3417 37.2908 20.5156 38.117 19.5001 38.117Z" fill="#57D211"/>
<path opacity="0.5" d="M27.8889 35.8698C27.2327 35.8698 26.6212 35.5168 26.2932 34.9488L24.0529 31.0685C23.5451 30.1891 23.8476 29.0604 24.727 28.5526C25.0067 28.391 25.3249 28.3057 25.6471 28.3057C26.3033 28.3057 26.9147 28.6586 27.2427 29.2267L29.483 33.107C29.9907 33.9864 29.6884 35.115 28.8089 35.6229C28.5292 35.7844 28.2111 35.8698 27.8889 35.8698Z" fill="#57D211"/>
<path opacity="0.4" d="M34.0278 29.7298C33.7056 29.7298 33.3875 29.6444 33.1078 29.4829L29.2275 27.2426C28.8014 26.9966 28.4967 26.5994 28.3695 26.1242C28.2422 25.649 28.3074 25.1527 28.5534 24.7267C28.8814 24.1586 29.4929 23.8057 30.149 23.8057C30.4713 23.8057 30.7894 23.891 31.0691 24.0526L34.9494 26.2929C35.8288 26.8007 36.1313 27.9293 35.6235 28.8088C35.2955 29.3768 34.684 29.7298 34.0278 29.7298Z" fill="#57D211"/>
<path opacity="0.3" d="M31.7956 21.3415C30.7801 21.3415 29.954 20.5153 29.954 19.4998C29.954 18.4844 30.7801 17.6582 31.7956 17.6582H36.2762C37.2917 17.6582 38.1178 18.4844 38.1178 19.4998C38.1178 20.5153 37.2917 21.3415 36.2762 21.3415H31.7956Z" fill="#57D211"/>
<path opacity="0.2" d="M30.1491 15.1937C29.4929 15.1937 28.8815 14.8407 28.5535 14.2726C28.0458 13.3932 28.3481 12.2646 29.2275 11.7567L33.1078 9.51646C33.3876 9.35489 33.7057 9.26953 34.0279 9.26953C34.6841 9.26953 35.2955 9.6225 35.6235 10.1905C35.8695 10.6166 35.935 11.1129 35.8075 11.5881C35.6802 12.0633 35.3753 12.4604 34.9495 12.7064L31.0692 14.9467C30.7895 15.1083 30.4713 15.1937 30.1491 15.1937Z" fill="#57D211"/>
<path opacity="0.1" d="M25.6471 10.6928C25.3249 10.6928 25.0067 10.6075 24.727 10.4459C23.8476 9.93826 23.5451 8.80964 24.0529 7.93019L26.2932 4.04992C26.6212 3.48188 27.2327 3.12891 27.8889 3.12891C28.2111 3.12891 28.5292 3.21426 28.8089 3.37584C29.6884 3.88349 29.9909 5.01211 29.483 5.89156L27.2427 9.77184C26.9147 10.3399 26.3033 10.6928 25.6471 10.6928Z" fill="#57D211"/>
</svg>
