<svg width="83" height="83" viewBox="0 0 83 83" fill="none" xmlns="http://www.w3.org/2000/svg">
<path d="M70.7187 59.9206C70.8298 59.523 70.9074 59.1696 70.9998 58.7988C74.2622 58.3798 77.1565 56.519 78.8728 53.6595L78.9879 53.4667C79.8607 52.0115 80.3226 50.3435 80.3226 48.646V48.1936C80.3226 45.9766 79.5448 43.9391 78.2529 42.3327L81.4591 37.524C82.4672 36.0113 83 34.2509 83 32.4329C83 30.1825 82.1767 28.0165 80.6814 26.3351C78.9732 24.414 77.1539 22.6269 75.2475 20.9495L75.1605 20.7098C72.3131 12.8797 66.3424 6.38832 58.7774 2.89563C54.6716 1.00135 50.1133 0 45.5938 0H37.4062C32.8881 0 28.3284 1.00135 24.2226 2.89563C16.6576 6.38698 10.6869 12.8797 7.83948 20.7098L7.75247 20.9495C5.84748 22.6269 4.02684 24.414 2.31865 26.3351C0.823307 28.0165 0 30.1825 0 32.4329C0 34.2509 0.532807 36.0126 1.54085 37.5254L4.74706 42.334C3.45521 43.9391 2.67742 45.9766 2.67742 48.1936V48.646C2.67742 50.3449 3.13927 52.0116 4.01211 53.4654L4.12992 53.6622C5.85552 56.5391 8.76989 58.3999 12.0537 58.8055C12.1354 59.1348 12.205 59.4467 12.3014 59.7988C11.4567 63.7909 12.7874 68.969 15.8209 73.4162C20.1128 79.7081 26.6443 82.9411 31.2977 81.1753C34.4932 82.3869 37.8119 83 41.1707 83H41.5027C44.9485 83 48.3555 82.3762 51.6381 81.1459C56.2981 82.9719 62.8564 79.7536 67.1791 73.4162C70.1738 69.0239 71.5112 63.8939 70.7187 59.9206ZM77.6452 48.646C77.6452 49.8589 77.3145 51.0504 76.6907 52.0919L76.5755 52.2846C75.451 54.1588 73.6478 55.4587 71.5781 55.9728C71.5808 55.9581 71.5848 55.9407 71.5862 55.9259L71.6598 55.4079C72.0855 52.4145 72.301 49.3609 72.2997 46.3354L72.297 41.6366C75.3453 42.2604 77.6452 44.9632 77.6452 48.1936V48.646ZM4.32002 28.1129C9.9841 21.7393 16.8075 16.754 24.6336 13.2746L23.5118 10.8435C19.5786 12.5919 15.8865 14.7205 12.4487 17.1957C15.4072 12.0444 19.916 7.83413 25.3445 5.32806C29.1009 3.59444 33.2723 2.67742 37.4062 2.67742H45.5938C49.7277 2.67742 53.8991 3.59444 57.6556 5.32673C63.0867 7.83279 67.5941 12.0444 70.554 17.1971C67.1068 14.7164 63.4 12.5812 59.4401 10.8208L58.4012 13.2894C66.1925 16.7526 73.0159 21.7393 78.68 28.1116C79.7389 29.3057 80.3226 30.8385 80.3226 32.4329C80.3226 33.3606 80.1191 34.2656 79.7429 35.101C79.0133 32.7582 77.613 30.6578 75.6384 29.0768L73.127 27.0674L71.455 29.1598L73.9664 31.1678C76.206 32.9617 77.518 35.599 77.6251 38.4504L76.2676 40.4866C75.0963 39.6767 73.7321 39.1332 72.2595 38.927C71.8874 32.8252 67.0011 27.9255 60.8149 27.6296L55.5176 27.378C47.7344 27.0058 40.1332 24.6724 33.4677 20.6509V8.03226H30.7903V20.3832C23.1945 22.2708 16.6388 26.8465 12.284 33.3781C11.2545 34.9229 10.7097 36.7208 10.7097 38.5763V38.9283C9.24915 39.1385 7.89571 39.6794 6.73371 40.4839L5.37626 38.4477C5.48335 35.5976 6.79529 32.959 9.03361 31.1665L11.545 29.1571L9.87298 27.0647L7.36023 29.0754C5.38697 30.6551 3.98668 32.7556 3.25708 35.0983C2.8809 34.2656 2.67742 33.3606 2.67742 32.4329C2.67742 30.8385 3.2611 29.3057 4.32002 28.1129ZM6.42581 52.2873L6.308 52.0892C5.6855 51.0504 5.35484 49.8589 5.35484 48.646V48.1936C5.35484 44.9619 7.65876 42.2577 10.7097 41.6352V45.8481C10.7097 49.2324 10.9694 52.6407 11.4808 55.9862C9.38703 55.4828 7.56237 54.1789 6.42581 52.2873ZM69.0078 55.0303L68.9342 55.5484C68.7628 56.7519 68.483 58.0103 68.052 59.507L67.9556 59.843L68.0359 60.1844C68.8164 63.4937 67.641 67.985 64.9662 71.9075C61.2794 77.3158 55.6984 80.2074 52.2686 78.5006L51.7331 78.2342L51.1775 78.4537C48.049 79.6934 44.7932 80.3226 41.5 80.3226H41.18C41.1774 80.3226 41.1747 80.3226 41.1707 80.3226C37.9712 80.3226 34.8091 79.7041 31.7716 78.4872L31.2214 78.2663L30.6886 78.5234C27.2561 80.186 21.6951 77.2797 18.0311 71.9075C15.3229 67.9368 14.1542 63.408 14.9788 60.0893L15.0645 59.7439L14.9681 59.4012C14.5866 58.0572 14.3336 56.9326 14.1689 55.8644L14.1314 55.6221C13.6388 52.4011 13.3871 49.1132 13.3871 45.8481V38.5763C13.3871 37.2509 13.7767 35.9671 14.5116 34.864C18.5826 28.7568 24.7474 24.497 31.8907 22.8451C38.9792 27.1664 47.0918 29.6551 55.3905 30.0514L60.6877 30.303C65.6932 30.5413 69.6156 34.6525 69.6183 39.6633L69.6209 46.3368C69.6236 49.2351 69.4175 52.1615 69.0078 55.0303Z" fill="url(#paint0_linear_5005_6388)"/>
<path d="M76.0387 69.0774L73.8968 67.471L69.2782 73.629L73.8968 79.7871L76.0387 78.1806L73.629 74.9677H83V72.2903H73.629L76.0387 69.0774Z" fill="url(#paint1_linear_5005_6388)"/>
<path d="M6.96129 69.0774L9.37097 72.2903H0V74.9677H9.37097L6.96129 78.1806L9.10323 79.7871L13.7218 73.629L9.10323 67.471L6.96129 69.0774Z" fill="url(#paint2_linear_5005_6388)"/>
<path d="M45.5161 48.2605V41.5H42.8387V48.2605C42.8387 50.3007 43.6339 52.2204 45.077 53.6635C45.3555 53.9433 45.5161 54.3302 45.5161 54.7251C45.5161 55.5524 44.8428 56.2258 44.0154 56.2258C43.6138 56.2258 43.2376 56.0705 42.9538 55.7867L41.5 54.3329L40.0462 55.7867C39.7624 56.0705 39.3862 56.2258 38.9846 56.2258C38.1572 56.2258 37.4839 55.5524 37.4839 54.7251C37.4839 54.3302 37.6445 53.9433 37.923 53.6635C39.3661 52.2204 40.1613 50.3007 40.1613 48.2605V41.5H37.4839V48.2605C37.4839 49.5858 36.9671 50.8335 36.03 51.7706C35.2522 52.5484 34.8065 53.6247 34.8065 54.7251C34.8065 57.029 36.6806 58.9032 38.9846 58.9032C39.9043 58.9032 40.7784 58.6074 41.5 58.0625C42.2216 58.6074 43.0957 58.9032 44.0154 58.9032C46.3194 58.9032 48.1936 57.029 48.1936 54.7251C48.1936 53.6247 47.7478 52.5484 46.97 51.7706C46.0329 50.8335 45.5161 49.5858 45.5161 48.2605Z" fill="url(#paint3_linear_5005_6388)"/>
<path d="M20.1596 38.1479C24.0914 35.528 29.4583 35.528 33.3901 38.1479L34.0648 38.5977L35.5494 36.3701L34.8747 35.9203C30.0607 32.7127 23.4877 32.7127 18.6737 35.9203L17.999 36.3701L19.4836 38.5977L20.1596 38.1479Z" fill="url(#paint4_linear_5005_6388)"/>
<path d="M27.0031 44.1774H26.5439C24.4596 44.1774 22.4997 43.3662 21.0258 41.8922L19.1328 43.7852C21.1141 45.7651 23.746 46.8548 26.5453 46.8548H27.0045C29.8037 46.8548 32.4356 45.7651 34.4156 43.7852L32.5226 41.8922C31.0474 43.3662 29.0875 44.1774 27.0031 44.1774Z" fill="url(#paint5_linear_5005_6388)"/>
<path d="M48.1253 35.9203L47.4506 36.3701L48.9352 38.5977L49.6099 38.1479C53.5417 35.528 58.9086 35.528 62.8404 38.1479L63.5151 38.5977L64.9997 36.3701L64.325 35.9203C59.5123 32.7127 52.9393 32.7127 48.1253 35.9203Z" fill="url(#paint6_linear_5005_6388)"/>
<path d="M56.4547 44.1774H55.9955C53.9112 44.1774 51.9513 43.3662 50.4774 41.8922L48.5845 43.7852C50.5657 45.7651 53.1976 46.8548 55.9969 46.8548H56.4561C59.2553 46.8548 61.8872 45.7651 63.8672 43.7852L61.9742 41.8922C60.499 43.3662 58.5391 44.1774 56.4547 44.1774Z" fill="url(#paint7_linear_5005_6388)"/>
<path d="M36.1452 66.9355H46.8548V69.6129H36.1452V66.9355Z" fill="url(#paint8_linear_5005_6388)"/>
<path d="M13.1595 27.5279C16.4568 23.4047 20.8491 20.343 25.8585 18.6723L25.0111 16.1341C19.5104 17.9668 14.6897 21.3297 11.0029 25.9375L12.0484 26.7742L13.1595 27.5279Z" fill="url(#paint9_linear_5005_6388)"/>
<path d="M65.3933 25.4194L65.8003 22.7728L60.2312 21.916C52.5162 20.7286 45.0636 18.3564 38.0823 14.865L36.8841 17.26C44.1158 20.8758 51.8335 23.3324 59.8243 24.5613L65.3933 25.4194Z" fill="url(#paint10_linear_5005_6388)"/>
<path d="M41.1372 13.1006C45.0998 11.5142 49.2766 10.7097 53.5484 10.7097V8.03226C48.9339 8.03226 44.4237 8.90108 40.1439 10.6146L39.666 10.8061L40.658 13.292L41.1372 13.1006Z" fill="url(#paint11_linear_5005_6388)"/>
<defs>
<linearGradient id="paint0_linear_5005_6388" x1="41.5" y1="0" x2="41.5" y2="83" gradientUnits="userSpaceOnUse">
<stop stop-color="#E36E00"/>
<stop offset="1" stop-color="#F8B90D"/>
</linearGradient>
<linearGradient id="paint1_linear_5005_6388" x1="41.5" y1="0" x2="41.5" y2="83" gradientUnits="userSpaceOnUse">
<stop stop-color="#E36E00"/>
<stop offset="1" stop-color="#F8B90D"/>
</linearGradient>
<linearGradient id="paint2_linear_5005_6388" x1="41.5" y1="0" x2="41.5" y2="83" gradientUnits="userSpaceOnUse">
<stop stop-color="#E36E00"/>
<stop offset="1" stop-color="#F8B90D"/>
</linearGradient>
<linearGradient id="paint3_linear_5005_6388" x1="41.5" y1="0" x2="41.5" y2="83" gradientUnits="userSpaceOnUse">
<stop stop-color="#E36E00"/>
<stop offset="1" stop-color="#F8B90D"/>
</linearGradient>
<linearGradient id="paint4_linear_5005_6388" x1="41.5" y1="0" x2="41.5" y2="83" gradientUnits="userSpaceOnUse">
<stop stop-color="#E36E00"/>
<stop offset="1" stop-color="#F8B90D"/>
</linearGradient>
<linearGradient id="paint5_linear_5005_6388" x1="41.5" y1="0" x2="41.5" y2="83" gradientUnits="userSpaceOnUse">
<stop stop-color="#E36E00"/>
<stop offset="1" stop-color="#F8B90D"/>
</linearGradient>
<linearGradient id="paint6_linear_5005_6388" x1="41.5" y1="0" x2="41.5" y2="83" gradientUnits="userSpaceOnUse">
<stop stop-color="#E36E00"/>
<stop offset="1" stop-color="#F8B90D"/>
</linearGradient>
<linearGradient id="paint7_linear_5005_6388" x1="41.5" y1="0" x2="41.5" y2="83" gradientUnits="userSpaceOnUse">
<stop stop-color="#E36E00"/>
<stop offset="1" stop-color="#F8B90D"/>
</linearGradient>
<linearGradient id="paint8_linear_5005_6388" x1="41.5" y1="0" x2="41.5" y2="83" gradientUnits="userSpaceOnUse">
<stop stop-color="#E36E00"/>
<stop offset="1" stop-color="#F8B90D"/>
</linearGradient>
<linearGradient id="paint9_linear_5005_6388" x1="41.5" y1="0" x2="41.5" y2="83" gradientUnits="userSpaceOnUse">
<stop stop-color="#E36E00"/>
<stop offset="1" stop-color="#F8B90D"/>
</linearGradient>
<linearGradient id="paint10_linear_5005_6388" x1="41.5" y1="0" x2="41.5" y2="83" gradientUnits="userSpaceOnUse">
<stop stop-color="#E36E00"/>
<stop offset="1" stop-color="#F8B90D"/>
</linearGradient>
<linearGradient id="paint11_linear_5005_6388" x1="41.5" y1="0" x2="41.5" y2="83" gradientUnits="userSpaceOnUse">
<stop stop-color="#E36E00"/>
<stop offset="1" stop-color="#F8B90D"/>
</linearGradient>
</defs>
</svg>
