<svg width="91" height="83" viewBox="0 0 91 83" fill="none" xmlns="http://www.w3.org/2000/svg">
<path d="M10.139 64.5365C9.81518 64.5365 9.49132 64.4189 9.2361 64.1803C8.70455 63.6838 8.67815 62.8505 9.17626 62.3206C11.9766 59.3469 15.282 56.9749 18.9994 55.2696C19.6612 54.9661 20.4462 55.2556 20.7507 55.9152C21.0552 56.5749 20.7647 57.3574 20.1029 57.6609C16.6972 59.2223 13.668 61.396 11.1018 64.1207C10.8413 64.3961 10.4911 64.5365 10.139 64.5365Z" fill="url(#paint0_linear_5005_6381)"/>
<path d="M78.5065 63.7733C78.1704 63.7733 77.8342 63.6452 77.5772 63.3908C75.0462 60.8855 72.1068 58.8907 68.8401 57.4591C68.173 57.1661 67.8703 56.3907 68.1624 55.7257C68.4564 55.0608 69.2343 54.7591 69.9014 55.0503C73.4656 56.6117 76.6743 58.789 79.4359 61.5241C79.9533 62.0364 79.9568 62.8698 79.4429 63.3856C79.1842 63.6452 78.8462 63.775 78.5065 63.775V63.7733Z" fill="url(#paint1_linear_5005_6381)"/>
<path d="M65.1368 59.403C64.4081 59.403 63.8167 58.8135 63.8167 58.0872C63.8167 57.3609 64.4081 56.7714 65.1368 56.7714C67.4056 56.7714 69.2502 54.931 69.2502 52.6713C69.2502 50.4116 67.4038 48.5712 65.1368 48.5712C64.4081 48.5712 63.8167 47.9817 63.8167 47.2554C63.8167 46.5291 64.4081 45.9396 65.1368 45.9396C68.8612 45.9396 71.8903 48.9589 71.8903 52.6713C71.8903 56.3837 68.8612 59.403 65.1368 59.403Z" fill="url(#paint2_linear_5005_6381)"/>
<path d="M24.857 50.1274C24.7549 50.1274 24.651 50.1151 24.5472 50.0905C23.954 49.9484 23.5369 49.4186 23.5369 48.8116C23.5369 42.9132 23.9048 38.4394 24.695 34.7271C25.7001 30.0112 27.4091 26.4409 29.9208 23.8128C30.4242 23.2865 31.2585 23.2672 31.7865 23.7672C32.3145 24.2689 32.3356 25.1005 31.8322 25.6269C27.7699 29.8778 26.5731 36.9271 26.2686 44.0115C27.8632 41.7991 30.0123 39.4517 32.23 38.9149C33.3987 38.6324 34.527 38.8447 35.4897 39.5307C38.9659 42.0062 41.6043 42.2026 44.6933 42.2026C47.7823 42.2026 50.4206 42.0062 53.8968 39.5307C54.8614 38.8447 55.9878 38.6306 57.1565 38.9149C59.3707 39.45 61.5145 41.7886 63.1074 43.9957C62.641 35.2183 60.6275 29.141 56.9946 25.4935C54.0394 22.5268 50.0141 21.0847 44.6915 21.0847C41.4881 21.0847 38.7037 21.5654 36.4155 22.5163C35.7432 22.7952 34.9705 22.4777 34.6889 21.8075C34.409 21.1373 34.7276 20.3671 35.4 20.0864C38.0119 19.0022 41.1379 18.453 44.6915 18.453C50.6688 18.453 55.4387 20.1987 58.8674 23.6391C63.7182 28.5076 65.9359 36.5078 65.8497 48.8186C65.8461 49.4239 65.4272 49.9484 64.8358 50.0888C64.2445 50.2291 63.6337 49.9484 63.3556 49.4098C63.3468 49.3923 62.3752 47.5186 60.9865 45.5746C58.7072 42.3886 57.2181 41.636 56.5335 41.4711C56.104 41.3675 55.7749 41.4272 55.4316 41.6728C51.3306 44.5922 48.0111 44.8343 44.6933 44.8343C41.3755 44.8343 38.056 44.5922 33.9549 41.6728C33.6117 41.429 33.2808 41.3675 32.8531 41.4728C32.1649 41.6395 30.6688 42.3974 28.3824 45.6027C26.9973 47.5449 26.0398 49.394 26.031 49.4116C25.8004 49.8572 25.3428 50.1274 24.857 50.1274Z" fill="url(#paint3_linear_5005_6381)"/>
<path d="M64.5349 50.1274C64.0561 50.1274 63.5932 49.866 63.3591 49.4116C63.3503 49.394 62.3787 47.5203 60.99 45.5764C58.7107 42.3904 57.2217 41.6377 56.537 41.4728C56.1075 41.3693 55.7784 41.4289 55.4352 41.6746C51.3341 44.5939 48.0146 44.836 44.6968 44.836C41.379 44.836 38.0595 44.5939 33.9584 41.6746C33.6152 41.4307 33.2843 41.3693 32.8566 41.4728C32.1719 41.6377 30.6811 42.3921 28.4036 45.5764C27.0131 47.5186 26.0433 49.3923 26.0327 49.4116C25.7001 50.0572 24.9045 50.3133 24.255 49.98C23.6073 49.6484 23.3503 48.8554 23.683 48.2098C24.1177 47.3642 28.0533 39.9272 32.2318 38.9149C33.4005 38.6324 34.5287 38.8447 35.4915 39.5307C38.9677 42.0044 41.6061 42.2027 44.695 42.2027C47.784 42.2027 50.4224 42.0062 53.8986 39.5307C54.8631 38.8447 55.9896 38.6306 57.1583 38.9149C61.3385 39.9272 65.2724 47.3642 65.7071 48.2098C66.0398 48.8572 65.7845 49.6502 65.1351 49.9818C64.9415 50.08 64.7355 50.1274 64.5331 50.1274H64.5349Z" fill="url(#paint4_linear_5005_6381)"/>
<path d="M28.4634 66.8698C28.0058 66.8698 27.5605 66.6312 27.3158 66.2067C24.7848 61.7925 23.4471 56.5907 23.4471 51.166C23.4471 50.3484 23.4788 49.5239 23.5387 48.7133C23.5932 47.9887 24.2286 47.4449 24.9538 47.501C25.6807 47.5554 26.2263 48.187 26.17 48.9116C26.1137 49.6554 26.0855 50.4134 26.0855 51.166C26.0855 56.1345 27.3035 60.8837 29.6057 64.9014C29.9683 65.533 29.7483 66.3365 29.1147 66.6962C28.9087 66.8137 28.6834 66.8698 28.4617 66.8698H28.4634Z" fill="url(#paint5_linear_5005_6381)"/>
<path d="M60.9284 66.8698C60.7067 66.8698 60.4814 66.8137 60.2754 66.6962C59.6418 66.3347 59.4235 65.5312 59.7844 64.9014C62.0883 60.8837 63.3046 56.1345 63.3046 51.166C63.3046 50.3555 63.2711 49.5379 63.206 48.7379C63.1462 48.0133 63.6883 47.3782 64.4152 47.3203C65.1456 47.2589 65.7793 47.801 65.8373 48.5256C65.9095 49.3975 65.9447 50.287 65.9447 51.1677C65.9447 56.5942 64.607 61.7943 62.076 66.2102C61.8331 66.6347 61.3861 66.8733 60.9284 66.8733V66.8698Z" fill="url(#paint6_linear_5005_6381)"/>
<path d="M18.239 82.9983H5.89191C4.23214 82.9983 2.64101 82.2947 1.52863 81.0684C0.410968 79.8385 -0.136422 78.1824 0.0290272 76.5279C0.61514 70.6541 2.45796 66.447 5.50293 64.0224C8.05156 61.9925 11.4045 61.2188 15.4704 61.7224C21.3491 62.4487 34.8191 66.3505 45.084 69.4962C45.781 69.7103 46.1718 70.4454 45.9588 71.1401C45.7441 71.8349 45.0066 72.2243 44.3096 72.0121C35.9878 69.4629 21.1361 65.0751 15.1465 64.3347C11.8129 63.9224 9.12346 64.5102 7.15039 66.0786C4.68097 68.0453 3.16904 71.6489 2.65509 76.7894C2.56181 77.7192 2.85574 78.6122 3.4841 79.3034C4.10717 79.9894 4.96258 80.3666 5.89191 80.3666H18.239C18.9677 80.3666 19.5591 80.9561 19.5591 81.6824C19.5591 82.4088 18.9677 82.9983 18.239 82.9983Z" fill="url(#paint7_linear_5005_6381)"/>
<path d="M84.2198 82.9983H66.9128C66.1841 82.9983 65.5927 82.4088 65.5927 81.6824C65.5927 80.9561 66.1841 80.3666 66.9128 80.3666H84.2198C85.1386 80.3666 86.0204 79.9771 86.6382 79.2982C87.2577 78.6175 87.5499 77.7402 87.4602 76.8297C86.9497 71.6699 85.4378 68.0541 82.9649 66.0821C80.9918 64.5101 78.3024 63.9224 74.9652 64.3347C67.0905 65.3084 43.7904 72.6138 39.2 74.0682C38.9624 74.1437 38.8022 74.3612 38.8022 74.6104V80.3684H60.9284C61.6571 80.3684 62.2485 80.9579 62.2485 81.6842C62.2485 82.4105 61.6571 83 60.9284 83H37.4822C36.7535 83 36.1621 82.4105 36.1621 81.6842V74.6104C36.1621 73.2103 37.0615 71.984 38.3992 71.5594C44.9027 69.498 66.7385 62.6996 74.6396 61.7224C78.7089 61.2188 82.0637 61.9943 84.6123 64.0259C87.6626 66.4575 89.5036 70.6787 90.0862 76.5718C90.2481 78.2069 89.7043 79.8456 88.5937 81.0666C87.476 82.2947 85.8813 83 84.2198 83V82.9983Z" fill="url(#paint8_linear_5005_6381)"/>
<path d="M14.4671 15.4845H5.86551C5.38149 15.4845 4.93618 15.2196 4.70561 14.7951C4.47504 14.3705 4.49616 13.8547 4.76017 13.4494L11.8322 2.63163H6.13129C5.40261 2.63163 4.81121 2.04215 4.81121 1.31582C4.81121 0.589486 5.40261 0 6.13129 0H14.2682C14.7523 0 15.1976 0.264918 15.4281 0.689488C15.6587 1.11406 15.6376 1.62986 15.3736 2.03513L8.30149 12.8547H14.4671C15.1958 12.8547 15.7872 13.4441 15.7872 14.1705C15.7872 14.8968 15.1958 15.4863 14.4671 15.4863V15.4845Z" fill="url(#paint9_linear_5005_6381)"/>
<path d="M25.5047 15.4845H19.9833C19.4992 15.4845 19.0539 15.2196 18.8234 14.7951C18.5928 14.3705 18.6139 13.8547 18.8779 13.4494L22.942 7.23349H20.154C19.4253 7.23349 18.8339 6.644 18.8339 5.91767C18.8339 5.19134 19.4253 4.60185 20.154 4.60185H25.378C25.862 4.60185 26.3073 4.86677 26.5379 5.29134C26.7684 5.71591 26.7473 6.23171 26.4833 6.63698L22.4192 12.8529H25.5047C26.2334 12.8529 26.8248 13.4424 26.8248 14.1687C26.8248 14.8951 26.2334 15.4845 25.5047 15.4845Z" fill="url(#paint10_linear_5005_6381)"/>
<path d="M34.4407 15.4845H30.8765C30.3925 15.4845 29.9472 15.2196 29.7166 14.7951C29.486 14.3705 29.5072 13.8547 29.7712 13.4494L31.922 10.1599H30.9874C30.2587 10.1599 29.6673 9.57038 29.6673 8.84405C29.6673 8.11772 30.2587 7.52823 30.9874 7.52823H34.358C34.842 7.52823 35.2873 7.79315 35.5179 8.21772C35.7485 8.64229 35.7273 9.15809 35.4633 9.56336L33.3125 12.8529H34.4407C35.1694 12.8529 35.7608 13.4424 35.7608 14.1687C35.7608 14.8951 35.1694 15.4845 34.4407 15.4845Z" fill="url(#paint11_linear_5005_6381)"/>
<path d="M24.2321 59.403C20.5078 59.403 17.4786 56.3837 17.4786 52.6713C17.4786 48.9589 20.5078 45.9396 24.2321 45.9396C24.9608 45.9396 25.5522 46.5291 25.5522 47.2554C25.5522 47.9817 24.9608 48.5712 24.2321 48.5712C21.9634 48.5712 20.1188 50.4116 20.1188 52.6713C20.1188 54.931 21.9651 56.7714 24.2321 56.7714C24.9608 56.7714 25.5522 57.3609 25.5522 58.0872C25.5522 58.8135 24.9608 59.403 24.2321 59.403Z" fill="url(#paint12_linear_5005_6381)"/>
<path d="M37.4822 82.9983H17.6318C16.5229 82.9983 15.5337 82.3386 15.1095 81.3175C14.6854 80.2964 14.9177 79.1333 15.7009 78.3508C18.0683 75.9893 21.2118 74.5454 24.5525 74.2875L37.3801 73.2963C38.107 73.2419 38.7424 73.7823 38.7987 74.5068C38.855 75.2314 38.3112 75.8648 37.5842 75.9209L24.7567 76.9122C22.0443 77.1227 19.4922 78.2946 17.5684 80.2122C17.5473 80.2333 17.5262 80.2543 17.549 80.3105C17.5719 80.3666 17.6018 80.3666 17.6318 80.3666H37.4822C38.2108 80.3666 38.8022 80.9561 38.8022 81.6824C38.8022 82.4088 38.2108 82.9983 37.4822 82.9983Z" fill="url(#paint13_linear_5005_6381)"/>
<defs>
<linearGradient id="paint0_linear_5005_6381" x1="45.0571" y1="0" x2="45.0571" y2="83" gradientUnits="userSpaceOnUse">
<stop stop-color="#E36E00"/>
<stop offset="1" stop-color="#F8B90D"/>
</linearGradient>
<linearGradient id="paint1_linear_5005_6381" x1="45.0571" y1="0" x2="45.0571" y2="83" gradientUnits="userSpaceOnUse">
<stop stop-color="#E36E00"/>
<stop offset="1" stop-color="#F8B90D"/>
</linearGradient>
<linearGradient id="paint2_linear_5005_6381" x1="45.0571" y1="0" x2="45.0571" y2="83" gradientUnits="userSpaceOnUse">
<stop stop-color="#E36E00"/>
<stop offset="1" stop-color="#F8B90D"/>
</linearGradient>
<linearGradient id="paint3_linear_5005_6381" x1="45.0571" y1="0" x2="45.0571" y2="83" gradientUnits="userSpaceOnUse">
<stop stop-color="#E36E00"/>
<stop offset="1" stop-color="#F8B90D"/>
</linearGradient>
<linearGradient id="paint4_linear_5005_6381" x1="45.0571" y1="0" x2="45.0571" y2="83" gradientUnits="userSpaceOnUse">
<stop stop-color="#E36E00"/>
<stop offset="1" stop-color="#F8B90D"/>
</linearGradient>
<linearGradient id="paint5_linear_5005_6381" x1="45.0571" y1="0" x2="45.0571" y2="83" gradientUnits="userSpaceOnUse">
<stop stop-color="#E36E00"/>
<stop offset="1" stop-color="#F8B90D"/>
</linearGradient>
<linearGradient id="paint6_linear_5005_6381" x1="45.0571" y1="0" x2="45.0571" y2="83" gradientUnits="userSpaceOnUse">
<stop stop-color="#E36E00"/>
<stop offset="1" stop-color="#F8B90D"/>
</linearGradient>
<linearGradient id="paint7_linear_5005_6381" x1="45.0571" y1="0" x2="45.0571" y2="83" gradientUnits="userSpaceOnUse">
<stop stop-color="#E36E00"/>
<stop offset="1" stop-color="#F8B90D"/>
</linearGradient>
<linearGradient id="paint8_linear_5005_6381" x1="45.0571" y1="0" x2="45.0571" y2="83" gradientUnits="userSpaceOnUse">
<stop stop-color="#E36E00"/>
<stop offset="1" stop-color="#F8B90D"/>
</linearGradient>
<linearGradient id="paint9_linear_5005_6381" x1="45.0571" y1="0" x2="45.0571" y2="83" gradientUnits="userSpaceOnUse">
<stop stop-color="#E36E00"/>
<stop offset="1" stop-color="#F8B90D"/>
</linearGradient>
<linearGradient id="paint10_linear_5005_6381" x1="45.0571" y1="0" x2="45.0571" y2="83" gradientUnits="userSpaceOnUse">
<stop stop-color="#E36E00"/>
<stop offset="1" stop-color="#F8B90D"/>
</linearGradient>
<linearGradient id="paint11_linear_5005_6381" x1="45.0571" y1="0" x2="45.0571" y2="83" gradientUnits="userSpaceOnUse">
<stop stop-color="#E36E00"/>
<stop offset="1" stop-color="#F8B90D"/>
</linearGradient>
<linearGradient id="paint12_linear_5005_6381" x1="45.0571" y1="0" x2="45.0571" y2="83" gradientUnits="userSpaceOnUse">
<stop stop-color="#E36E00"/>
<stop offset="1" stop-color="#F8B90D"/>
</linearGradient>
<linearGradient id="paint13_linear_5005_6381" x1="45.0571" y1="0" x2="45.0571" y2="83" gradientUnits="userSpaceOnUse">
<stop stop-color="#E36E00"/>
<stop offset="1" stop-color="#F8B90D"/>
</linearGradient>
</defs>
</svg>
