<svg width="83" height="83" viewBox="0 0 83 83" fill="none" xmlns="http://www.w3.org/2000/svg">
<path d="M1.23225 66.2914C0.561225 66.2914 0.0166202 65.7467 0.0166202 65.0756V20.5798C0.0166202 17.6683 0.903223 14.8719 2.57918 12.4905C2.96494 11.941 3.7235 11.8097 4.27296 12.1971C4.82243 12.5829 4.95372 13.3416 4.56634 13.8912C3.18051 15.8608 2.44627 18.1741 2.44627 20.5798V65.0756C2.44627 65.7467 1.90166 66.2914 1.23063 66.2914H1.23225Z" fill="url(#paint0_linear_5005_6353)"/>
<path d="M7.11431 10.9878C6.7172 10.9878 6.32982 10.7949 6.09641 10.4382C5.72848 9.8757 5.8857 9.12352 6.44814 8.75553C8.79674 7.21873 11.5327 6.40656 14.3595 6.40656C15.0305 6.40656 15.5751 6.95125 15.5751 7.62238C15.5751 8.29352 15.0305 8.8382 14.3595 8.8382C12.006 8.8382 9.73035 9.5142 7.77885 10.7916C7.57301 10.9262 7.34284 10.991 7.11431 10.991V10.9878Z" fill="url(#paint1_linear_5005_6353)"/>
<path d="M56.1417 50.4144C55.4706 50.4144 54.926 49.8697 54.926 49.1986L54.9098 20.5798C54.9098 14.1035 49.5659 8.83496 42.9982 8.83496C42.3272 8.83496 41.7826 8.29027 41.7826 7.61914C41.7826 6.94801 42.3272 6.40332 42.9982 6.40332C50.9063 6.40332 57.3411 12.7629 57.3411 20.5798L57.3573 49.1986C57.3573 49.8697 56.8143 50.4144 56.1417 50.4144Z" fill="url(#paint2_linear_5005_6353)"/>
<path d="M48.7911 45.7537H8.63142C7.96039 45.7537 7.41578 45.2091 7.41578 44.5379V35.0691C7.41578 34.398 7.96039 33.8533 8.63142 33.8533C9.30245 33.8533 9.84705 34.398 9.84705 35.0691V43.3221H47.5755V35.0967C47.5755 34.4255 48.1201 33.8809 48.7911 33.8809C49.4622 33.8809 50.0068 34.4255 50.0068 35.0967V44.5379C50.0068 45.2091 49.4622 45.7537 48.7911 45.7537Z" fill="url(#paint3_linear_5005_6353)"/>
<path d="M15.9139 39.4315C12.9234 39.4315 10.0416 38.2124 7.97335 36.0774C7.85017 35.9867 7.74319 35.8732 7.66215 35.7435C5.89219 33.7577 4.91968 31.2142 4.91968 28.5604C4.91968 25.9067 5.88084 23.3924 7.63135 21.4114L12.8505 7.19928C13.0255 6.72105 13.4826 6.40332 13.9916 6.40332H19.7326C20.4036 6.40332 20.9482 6.94801 20.9482 7.61914C20.9482 8.29027 20.4036 8.83496 19.7326 8.83496H14.8409L9.83246 22.4716C9.77736 22.6224 9.69307 22.7602 9.58447 22.8785C8.14354 24.4347 7.35095 26.453 7.35095 28.5604C7.35095 30.6679 8.14192 32.6829 9.57961 34.2391C9.58934 34.2488 9.59744 34.2586 9.60717 34.2683C11.2264 36.0045 13.5248 37.0015 15.9155 37.0015C16.5865 37.0015 17.1311 37.5462 17.1311 38.2173C17.1311 38.8884 16.5865 39.4331 15.9155 39.4331L15.9139 39.4315Z" fill="url(#paint4_linear_5005_6353)"/>
<path d="M41.5087 39.4315C40.8376 39.4315 40.293 38.8868 40.293 38.2157C40.293 37.5445 40.8376 36.9998 41.5087 36.9998C43.8978 36.9998 46.1978 36.0045 47.817 34.2667C47.8267 34.257 47.8348 34.2472 47.8445 34.2375C49.2822 32.6812 50.0732 30.6646 50.0732 28.5588C50.0732 26.453 49.2806 24.4331 47.8397 22.8769C47.7311 22.7585 47.6468 22.6207 47.5917 22.47L42.5833 8.83334H37.6916C37.0205 8.83334 36.4759 8.28865 36.4759 7.61752C36.4759 6.94639 37.0205 6.4017 37.6916 6.4017H43.4326C43.9415 6.4017 44.3986 6.71943 44.5737 7.19766L49.7928 21.4098C51.5433 23.3908 52.5045 25.9197 52.5045 28.5588C52.5045 31.1979 51.532 33.756 49.762 35.7419C49.6793 35.8716 49.574 35.985 49.4492 36.0758C47.381 38.2092 44.4991 39.4299 41.5087 39.4299V39.4315Z" fill="url(#paint5_linear_5005_6353)"/>
<path d="M28.7121 29.2818C23.091 29.2818 18.517 24.759 18.517 19.2019V7.61914C18.517 7.01934 18.9546 6.50869 19.5494 6.41791C20.073 6.33848 22.6793 5.82135 22.6793 3.51129V1.21582C22.6793 0.544688 23.2239 0 23.8949 0C24.566 0 25.1106 0.544688 25.1106 1.21582V3.51129C25.1106 5.94293 23.5092 7.85744 20.9482 8.59666V19.2019C20.9482 23.4199 24.4314 26.8502 28.7121 26.8502C32.9927 26.8502 36.4759 23.4183 36.4759 19.2019V8.62098C35.5115 8.36322 34.6347 7.92229 33.9393 7.33707C32.7723 6.35469 32.1548 5.03188 32.1548 3.50967V1.21582C32.1548 0.544688 32.6994 0 33.3704 0C34.0414 0 34.586 0.544688 34.586 1.21582V3.51129C34.586 5.36582 36.3365 6.23473 37.8358 6.41305C38.4469 6.486 38.9072 7.00475 38.9072 7.62076V19.2019C38.9072 24.7606 34.3332 29.2818 28.7121 29.2818Z" fill="url(#paint6_linear_5005_6353)"/>
<path d="M34.5893 66.2914H1.23225C0.592021 66.2914 0.0620039 65.7953 0.0198619 65.1566C-0.00931332 64.7189 -0.609026 54.3002 7.67836 43.7857C7.90852 43.4939 8.26024 43.3221 8.63304 43.3221H48.7927C49.1412 43.3221 49.4735 43.4712 49.7037 43.7322C50.9955 45.1928 52.1495 46.8334 53.1366 48.6069C53.4624 49.1937 53.2517 49.9346 52.6649 50.2604C52.0782 50.5862 51.3375 50.3755 51.0117 49.7887C50.2029 48.3329 49.2693 46.9777 48.2368 45.7521H9.22789C3.39771 53.4086 2.54838 61.0407 2.44789 63.8581H34.5893C35.2603 63.8581 35.8049 64.4028 35.8049 65.0739C35.8049 65.7451 35.2603 66.2898 34.5893 66.2898V66.2914Z" fill="url(#paint7_linear_5005_6353)"/>
<path d="M4.53716 83C4.06063 83 3.61004 82.7196 3.41553 82.2527C-0.197332 73.596 0.00689515 65.3836 0.0166202 65.0383C0.0360704 64.3817 0.574191 63.8597 1.23225 63.8597H28.7931C29.4642 63.8597 30.0088 64.4044 30.0088 65.0756C30.0088 65.7467 29.4642 66.2914 28.7931 66.2914H2.46086C2.54352 68.8122 3.02653 75.0096 5.65879 81.3157C5.91812 81.9349 5.62475 82.6466 5.00558 82.906C4.85322 82.9692 4.69438 83 4.53716 83Z" fill="url(#paint8_linear_5005_6353)"/>
<path d="M28.7072 78.5825C27.1577 78.5825 25.6082 78.2194 24.1948 77.4948L24.1543 77.4737C23.5562 77.1673 23.3195 76.4362 23.6259 75.838C23.9322 75.2398 24.6648 75.0031 25.2613 75.3095L25.3034 75.3306C27.4349 76.4248 29.978 76.4248 32.1061 75.3306L32.1515 75.3079C32.7496 75.0031 33.4822 75.2398 33.7869 75.838C34.0917 76.4362 33.855 77.1689 33.2569 77.4737L33.2148 77.4948C31.8047 78.2194 30.2551 78.5809 28.7072 78.5809V78.5825Z" fill="url(#paint9_linear_5005_6353)"/>
<path d="M28.8774 83C28.2339 83 27.6974 82.4958 27.665 81.8474L27.4932 78.5079C27.4592 77.8368 27.9746 77.2662 28.644 77.2305C29.3118 77.1949 29.8856 77.712 29.9212 78.3815L30.093 81.721C30.1271 82.3921 29.6117 82.9627 28.9422 82.9984C28.9212 82.9984 28.9001 82.9984 28.879 82.9984L28.8774 83Z" fill="url(#paint10_linear_5005_6353)"/>
<path d="M28.6327 58.6366C28.5532 58.6366 28.4738 58.6285 28.3944 58.6139C28.3182 58.5977 28.2404 58.575 28.1675 58.5442C28.0945 58.5134 28.0232 58.4761 27.9584 58.4323C27.8919 58.3886 27.8287 58.3367 27.7736 58.2816C27.7169 58.2248 27.6666 58.1632 27.6213 58.0968C27.5775 58.0303 27.5402 57.959 27.5094 57.886C27.4802 57.8131 27.4559 57.7369 27.4413 57.6591C27.4251 57.5796 27.417 57.5002 27.417 57.4208C27.417 57.3413 27.4251 57.2619 27.4413 57.1841C27.4559 57.1063 27.4802 57.0301 27.5094 56.9555C27.5402 56.8826 27.5775 56.8129 27.6213 56.7464C27.6666 56.6799 27.7169 56.6183 27.7736 56.5616C27.8287 56.5048 27.8919 56.4546 27.9584 56.4108C28.0232 56.3671 28.0945 56.3281 28.1675 56.299C28.2404 56.2682 28.3182 56.2455 28.3944 56.2293C28.7899 56.1498 29.2097 56.2795 29.4917 56.5616C29.5484 56.6183 29.5987 56.6799 29.6441 56.7464C29.6878 56.8129 29.7251 56.8826 29.7559 56.9555C29.7851 57.0301 29.8094 57.1063 29.824 57.1841C29.8402 57.2619 29.8483 57.3413 29.8483 57.4208C29.8483 57.5002 29.8402 57.5796 29.824 57.6591C29.8094 57.7369 29.7851 57.8131 29.7559 57.886C29.7251 57.959 29.6878 58.0303 29.6441 58.0968C29.5987 58.1632 29.5484 58.2248 29.4917 58.2816C29.2664 58.5069 28.952 58.6366 28.6327 58.6366Z" fill="url(#paint11_linear_5005_6353)"/>
<path d="M47.8851 82.7228C45.9222 82.7228 44.1069 81.742 43.0274 80.1031L32.7982 64.5682C30.8095 61.5481 31.5453 57.5586 34.4742 55.4836C41.1245 50.771 49.6729 47.9584 57.3411 47.9584C65.0093 47.9584 73.5576 50.771 80.208 55.4836C83.1368 57.5586 83.8727 61.5497 81.8839 64.5682L76.0343 73.4518C75.6647 74.0127 74.9111 74.1683 74.3502 73.7987C73.7894 73.4291 73.6338 72.6753 74.0034 72.1144L79.853 63.2308C81.1173 61.3114 80.6553 58.7809 78.8027 57.4678C72.5479 53.0357 64.5247 50.3901 57.3411 50.3901C50.1575 50.3901 42.1343 53.0357 35.8795 57.4678C34.0268 58.7809 33.5649 61.3114 34.8292 63.2308L45.0583 78.7657C45.6872 79.7205 46.744 80.2912 47.8867 80.2912H66.7987C67.9398 80.2912 68.9966 79.7205 69.6255 78.7657L71.3468 76.1525C71.7164 75.5916 72.4701 75.436 73.0309 75.8056C73.5917 76.1752 73.7473 76.929 73.3777 77.4899L71.6564 80.1031C70.5769 81.742 68.7616 82.7212 66.8003 82.7228H47.8851Z" fill="url(#paint12_linear_5005_6353)"/>
<path d="M61.6039 79.3493C61.4467 79.3493 61.2878 79.3185 61.1339 79.2537C60.5147 78.9943 60.2229 78.281 60.4839 77.6617L67.4568 61.0471L57.9878 76.3795C57.6345 76.9501 56.8856 77.1284 56.3151 76.775C55.7445 76.4216 55.5663 75.6727 55.9196 75.102L67.413 56.4919C67.4454 56.44 67.4811 56.3914 67.52 56.3444C68.2623 55.4673 69.4812 55.3166 70.4148 55.9877C71.3209 56.6378 71.5818 57.7871 71.0567 58.7549L62.7255 78.6036C62.5294 79.0688 62.0788 79.3493 61.6039 79.3493Z" fill="url(#paint13_linear_5005_6353)"/>
<path d="M62.779 82.7228H51.9048C51.2337 82.7228 50.6891 82.1781 50.6891 81.507C50.6891 77.8384 53.6731 74.854 57.3427 74.854C61.0123 74.854 63.9947 77.8384 63.9947 81.507C63.9947 82.1781 63.4501 82.7228 62.779 82.7228ZM53.2987 80.2912H61.3851C60.8616 78.5533 59.2472 77.2856 57.3427 77.2856C55.4382 77.2856 53.8222 78.555 53.2987 80.2912Z" fill="url(#paint14_linear_5005_6353)"/>
<path d="M57.3427 59.4066C56.6717 59.4066 56.1271 58.8619 56.1271 58.1908V55.2744C56.1271 54.6033 56.6717 54.0586 57.3427 54.0586C58.0137 54.0586 58.5583 54.6033 58.5583 55.2744V58.1908C58.5583 58.8619 58.0137 59.4066 57.3427 59.4066Z" fill="url(#paint15_linear_5005_6353)"/>
<path d="M51.7816 59.9562C51.2029 59.9562 50.6891 59.5412 50.5854 58.9511L50.0797 56.0785C49.963 55.4171 50.4039 54.7865 51.0652 54.6698C51.7265 54.553 52.357 54.994 52.4737 55.6554L52.9794 58.528C53.0961 59.1894 52.6552 59.82 51.9939 59.9367C51.9226 59.9497 51.8513 59.9562 51.7816 59.9562Z" fill="url(#paint16_linear_5005_6353)"/>
<path d="M46.4036 61.4622C45.9076 61.4622 45.4408 61.1558 45.2609 60.6613L44.2625 57.9201C44.0323 57.2895 44.3581 56.5908 44.9886 56.3622C45.6191 56.1336 46.3177 56.4578 46.5462 57.0884L47.5447 59.8297C47.7748 60.4603 47.4491 61.159 46.8185 61.3876C46.6808 61.4378 46.5414 61.4605 46.4036 61.4605V61.4622Z" fill="url(#paint17_linear_5005_6353)"/>
<path d="M41.3693 63.8792C40.9495 63.8792 40.541 63.662 40.3157 63.2713L38.857 60.7456C38.5214 60.1637 38.7208 59.4212 39.3027 59.084C39.8846 58.7484 40.6269 58.9478 40.9641 59.5298L42.4228 62.0555C42.7583 62.6374 42.559 63.3799 41.9771 63.7171C41.7858 63.8273 41.5767 63.8808 41.3709 63.8808L41.3693 63.8792Z" fill="url(#paint18_linear_5005_6353)"/>
<path d="M62.9022 59.9562C62.8325 59.9562 62.7612 59.9497 62.6899 59.9367C62.0286 59.82 61.5877 59.1894 61.7044 58.528L62.2101 55.6554C62.3268 54.994 62.9557 54.553 63.6186 54.6698C64.2799 54.7865 64.7208 55.4171 64.6041 56.0785L64.0984 58.9511C63.9947 59.5412 63.4808 59.9562 62.9022 59.9562Z" fill="url(#paint19_linear_5005_6353)"/>
<path d="M73.3161 63.8792C73.1103 63.8792 72.9012 63.8273 72.71 63.7155C72.1281 63.3799 71.9287 62.6358 72.2642 62.0538L73.723 59.5282C74.0585 58.9462 74.8025 58.7468 75.3843 59.0824C75.9662 59.4179 76.1656 60.162 75.8301 60.744L74.3713 63.2697C74.146 63.6604 73.7376 63.8776 73.3178 63.8776L73.3161 63.8792Z" fill="url(#paint20_linear_5005_6353)"/>
<defs>
<linearGradient id="paint0_linear_5005_6353" x1="41.5" y1="0" x2="41.5" y2="83" gradientUnits="userSpaceOnUse">
<stop stop-color="#E36E00"/>
<stop offset="1" stop-color="#F8B90D"/>
</linearGradient>
<linearGradient id="paint1_linear_5005_6353" x1="41.5" y1="0" x2="41.5" y2="83" gradientUnits="userSpaceOnUse">
<stop stop-color="#E36E00"/>
<stop offset="1" stop-color="#F8B90D"/>
</linearGradient>
<linearGradient id="paint2_linear_5005_6353" x1="41.5" y1="0" x2="41.5" y2="83" gradientUnits="userSpaceOnUse">
<stop stop-color="#E36E00"/>
<stop offset="1" stop-color="#F8B90D"/>
</linearGradient>
<linearGradient id="paint3_linear_5005_6353" x1="41.5" y1="0" x2="41.5" y2="83" gradientUnits="userSpaceOnUse">
<stop stop-color="#E36E00"/>
<stop offset="1" stop-color="#F8B90D"/>
</linearGradient>
<linearGradient id="paint4_linear_5005_6353" x1="41.5" y1="0" x2="41.5" y2="83" gradientUnits="userSpaceOnUse">
<stop stop-color="#E36E00"/>
<stop offset="1" stop-color="#F8B90D"/>
</linearGradient>
<linearGradient id="paint5_linear_5005_6353" x1="41.5" y1="0" x2="41.5" y2="83" gradientUnits="userSpaceOnUse">
<stop stop-color="#E36E00"/>
<stop offset="1" stop-color="#F8B90D"/>
</linearGradient>
<linearGradient id="paint6_linear_5005_6353" x1="41.5" y1="0" x2="41.5" y2="83" gradientUnits="userSpaceOnUse">
<stop stop-color="#E36E00"/>
<stop offset="1" stop-color="#F8B90D"/>
</linearGradient>
<linearGradient id="paint7_linear_5005_6353" x1="41.5" y1="0" x2="41.5" y2="83" gradientUnits="userSpaceOnUse">
<stop stop-color="#E36E00"/>
<stop offset="1" stop-color="#F8B90D"/>
</linearGradient>
<linearGradient id="paint8_linear_5005_6353" x1="41.5" y1="0" x2="41.5" y2="83" gradientUnits="userSpaceOnUse">
<stop stop-color="#E36E00"/>
<stop offset="1" stop-color="#F8B90D"/>
</linearGradient>
<linearGradient id="paint9_linear_5005_6353" x1="41.5" y1="0" x2="41.5" y2="83" gradientUnits="userSpaceOnUse">
<stop stop-color="#E36E00"/>
<stop offset="1" stop-color="#F8B90D"/>
</linearGradient>
<linearGradient id="paint10_linear_5005_6353" x1="41.5" y1="0" x2="41.5" y2="83" gradientUnits="userSpaceOnUse">
<stop stop-color="#E36E00"/>
<stop offset="1" stop-color="#F8B90D"/>
</linearGradient>
<linearGradient id="paint11_linear_5005_6353" x1="41.5" y1="0" x2="41.5" y2="83" gradientUnits="userSpaceOnUse">
<stop stop-color="#E36E00"/>
<stop offset="1" stop-color="#F8B90D"/>
</linearGradient>
<linearGradient id="paint12_linear_5005_6353" x1="41.5" y1="0" x2="41.5" y2="83" gradientUnits="userSpaceOnUse">
<stop stop-color="#E36E00"/>
<stop offset="1" stop-color="#F8B90D"/>
</linearGradient>
<linearGradient id="paint13_linear_5005_6353" x1="41.5" y1="0" x2="41.5" y2="83" gradientUnits="userSpaceOnUse">
<stop stop-color="#E36E00"/>
<stop offset="1" stop-color="#F8B90D"/>
</linearGradient>
<linearGradient id="paint14_linear_5005_6353" x1="41.5" y1="0" x2="41.5" y2="83" gradientUnits="userSpaceOnUse">
<stop stop-color="#E36E00"/>
<stop offset="1" stop-color="#F8B90D"/>
</linearGradient>
<linearGradient id="paint15_linear_5005_6353" x1="41.5" y1="0" x2="41.5" y2="83" gradientUnits="userSpaceOnUse">
<stop stop-color="#E36E00"/>
<stop offset="1" stop-color="#F8B90D"/>
</linearGradient>
<linearGradient id="paint16_linear_5005_6353" x1="41.5" y1="0" x2="41.5" y2="83" gradientUnits="userSpaceOnUse">
<stop stop-color="#E36E00"/>
<stop offset="1" stop-color="#F8B90D"/>
</linearGradient>
<linearGradient id="paint17_linear_5005_6353" x1="41.5" y1="0" x2="41.5" y2="83" gradientUnits="userSpaceOnUse">
<stop stop-color="#E36E00"/>
<stop offset="1" stop-color="#F8B90D"/>
</linearGradient>
<linearGradient id="paint18_linear_5005_6353" x1="41.5" y1="0" x2="41.5" y2="83" gradientUnits="userSpaceOnUse">
<stop stop-color="#E36E00"/>
<stop offset="1" stop-color="#F8B90D"/>
</linearGradient>
<linearGradient id="paint19_linear_5005_6353" x1="41.5" y1="0" x2="41.5" y2="83" gradientUnits="userSpaceOnUse">
<stop stop-color="#E36E00"/>
<stop offset="1" stop-color="#F8B90D"/>
</linearGradient>
<linearGradient id="paint20_linear_5005_6353" x1="41.5" y1="0" x2="41.5" y2="83" gradientUnits="userSpaceOnUse">
<stop stop-color="#E36E00"/>
<stop offset="1" stop-color="#F8B90D"/>
</linearGradient>
</defs>
</svg>
