<svg width="83" height="83" viewBox="0 0 83 83" fill="none" xmlns="http://www.w3.org/2000/svg">
<path d="M13.3777 49.382L26.5673 57.2926C26.9745 57.5377 27.4907 57.5403 27.9018 57.2926L41.0915 49.382C46.1443 46.3513 49.2828 40.8126 49.2828 34.9264V12.9583C49.2828 12.2697 48.7446 11.7017 48.0572 11.6628C42.8734 11.3775 35.1607 10.1987 27.8577 6.20453C27.47 5.99315 27.0018 5.99315 26.614 6.20453C19.3111 10.2 11.597 11.3775 6.41325 11.6641C5.72588 11.7017 5.18766 12.2697 5.18766 12.9583V34.9264C5.18766 40.8126 8.3262 46.3513 13.3777 49.382ZM7.78149 14.1722C13.0262 13.7689 20.2565 12.4798 27.2352 8.81502C34.2139 12.4798 41.4442 13.7689 46.689 14.1722V34.9264C46.689 39.9062 44.0329 44.5929 39.7569 47.158L27.2352 54.6691L14.7135 47.158C10.4376 44.5929 7.78149 39.9062 7.78149 34.9264V14.1722Z" fill="url(#paint0_linear_5005_6374)"/>
<path d="M10.706 53.8301L26.5673 63.3487C26.9745 63.5938 27.4907 63.5964 27.9018 63.3487L43.7631 53.8301C46.9237 51.9341 49.5577 49.2329 51.2684 46.328C53.3629 42.9083 54.4705 38.966 54.4705 34.9264C54.4705 34.658 54.4705 7.77108 54.4705 7.77108C54.4705 7.08377 53.8311 6.42499 53.0568 6.47945C52.9193 6.49242 39.089 7.63103 27.955 0.208054C27.4868 -0.104479 26.876 -0.0318572 26.5167 0.208054C15.3801 7.63103 1.55241 6.49372 1.41364 6.47945C0.638083 6.42499 0 7.0734 0 7.77108V34.9264C0 42.6269 4.10214 49.8709 10.706 53.8301ZM2.59383 9.13793C10.7929 9.38692 20.0386 7.36259 27.2352 2.81595C34.402 7.34313 43.636 9.38821 51.8766 9.13793C51.8766 9.96659 51.8766 36.6525 51.8766 34.9264C51.8766 38.4888 50.9013 41.9629 49.0468 44.9923C47.5618 47.5094 45.2468 49.9163 42.4286 51.606L27.2352 60.7253L12.0406 51.606C6.21352 48.1124 2.59383 41.7204 2.59383 34.9264V9.13793Z" fill="url(#paint1_linear_5005_6374)"/>
<path d="M16.8599 35.0172H23.3445V41.5013C23.3445 42.2171 23.9242 42.7981 24.6414 42.7981H29.8291C30.5463 42.7981 31.126 42.2171 31.126 41.5013V35.0172H37.6105C38.3277 35.0172 38.9075 34.4362 38.9075 33.7204V28.5331C38.9075 27.8173 38.3277 27.2363 37.6105 27.2363H31.126V20.7522C31.126 20.0364 30.5463 19.4554 29.8291 19.4554H24.6414C23.9242 19.4554 23.3445 20.0364 23.3445 20.7522V27.2363H16.8599C16.1427 27.2363 15.563 27.8173 15.563 28.5331V33.7204C15.563 34.4362 16.1427 35.0172 16.8599 35.0172ZM18.1568 29.8299H24.6414C25.3586 29.8299 25.9383 29.2489 25.9383 28.5331V22.049H28.5321V28.5331C28.5321 29.2489 29.1119 29.8299 29.8291 29.8299H36.3136V32.4235H29.8291C29.1119 32.4235 28.5321 33.0045 28.5321 33.7204V40.2044H25.9383V33.7204C25.9383 33.0045 25.3586 32.4235 24.6414 32.4235H18.1568V29.8299Z" fill="url(#paint2_linear_5005_6374)"/>
<path d="M58.002 39.0879C59.8812 39.3693 61.6541 40.0748 63.2181 41.1174L63.0794 41.2562C61.8655 42.47 63.7006 44.3037 64.9132 43.0899L66.1881 41.8151C66.192 41.8112 66.1972 41.8099 66.201 41.8047C66.2023 41.8021 66.2036 41.7995 66.2049 41.7982L70.7727 37.2308C71.0489 36.9546 71.2577 36.384 71.0697 35.8705C70.6469 34.7098 70.9413 33.3897 71.8219 32.5091C73.0851 31.246 75.1433 31.2434 76.4078 32.5091C77.6723 33.7735 77.6723 35.8303 76.4078 37.0934C75.5259 37.9739 74.2069 38.2683 73.0449 37.8468C72.5469 37.6627 71.9516 37.852 71.6364 38.2073L66.9157 42.9291C66.4929 43.3518 66.4501 44.1247 66.7652 44.5812C69.787 48.9657 69.7805 54.852 66.7471 59.2274C66.6913 59.3753 66.5019 59.632 66.5383 60.0678C66.5655 60.4023 66.7678 60.7473 66.8975 60.8757L71.3732 65.351C71.831 65.8088 72.3822 65.7037 72.7349 65.6506C73.8957 65.2291 75.2159 65.5235 76.0978 66.404C77.3623 67.6684 77.3623 69.7252 76.0978 70.9895C74.8346 72.2514 72.7764 72.2539 71.5119 70.9895C70.6313 70.109 70.3369 68.7888 70.7597 67.6282C70.9374 67.1406 70.7441 66.5531 70.4588 66.2665L64.5981 60.4062C63.3842 59.1924 61.5516 61.0274 62.7642 62.2399L63.1922 62.6679C61.7539 63.621 60.1471 64.2811 58.465 64.5781C57.8684 64.6831 57.3885 65.3017 57.3885 65.8542V72.027C57.3885 72.3745 57.6362 72.9179 58.0422 73.1513C59.5544 74.0215 60.2858 75.7748 59.863 77.5177C59.5388 78.8547 58.4157 79.9687 57.0695 80.289C54.4302 80.9167 52.2047 78.9274 52.2047 76.5153C52.2047 75.1303 52.9492 73.8412 54.1475 73.1526C54.7285 72.8194 54.761 72.158 54.7947 72.0283V65.8555C54.7947 64.818 53.6093 64.5184 53.7403 64.5794C51.6198 64.1955 49.5824 63.2398 47.8471 61.8172C46.5256 60.7265 44.8733 62.7327 46.2026 63.822C47.982 65.2823 50.0415 66.3016 52.2009 66.8618V71.341C50.5888 72.5522 49.6109 74.4702 49.6109 76.5153C49.6109 78.5124 50.5097 80.3668 52.0763 81.6053C55.7272 84.4907 61.2793 82.6894 62.3829 78.1298C63.0171 75.5206 62.0509 72.8972 59.981 71.3501V66.8709C61.7915 66.4105 63.5061 65.6155 65.0429 64.5197L68.0907 67.5672C67.712 69.4476 68.2917 71.437 69.6768 72.8219C71.9568 75.1018 75.6608 75.0914 77.9304 72.8219C80.2051 70.5473 80.2051 66.8449 77.9304 64.569C76.544 63.184 74.5519 62.603 72.6727 62.983L69.468 59.7786C70.6702 57.7465 71.3654 55.4913 71.5573 53.1998H72.8088C73.4236 55.5834 75.5142 57.0903 77.8123 57.0903C80.6785 57.0903 83 54.7703 83 51.903C83 50.518 82.4605 49.2147 81.48 48.2343C79.5217 46.2748 76.103 46.2748 74.1447 48.2343C73.4793 48.8983 73.0371 49.7192 72.8088 50.6062H71.5586C71.3706 48.316 70.678 46.0622 69.481 44.0275L73.0008 40.5079C73.373 40.5818 73.7465 40.6285 74.1213 40.6285C75.6374 40.6285 77.1315 40.0346 78.2403 38.9271C80.5151 36.6525 80.5151 32.9501 78.2403 30.6741C75.9655 28.3995 72.2615 28.3995 69.9867 30.6741C68.6016 32.0604 68.0206 34.0498 68.4006 35.9314L65.0676 39.2642C63.0872 37.8468 60.8124 36.8846 58.3819 36.5215C56.6986 36.2608 56.2952 38.8337 58.002 39.0879ZM77.8149 49.3107C80.1234 49.3107 81.2725 52.1144 79.6488 53.738C78.0886 55.2981 75.2289 54.2684 75.2224 51.9121C75.2224 51.9095 75.2237 51.9069 75.2237 51.903C75.2237 51.8991 75.2224 51.8978 75.2224 51.8939C75.2263 50.4597 76.3896 49.3107 77.8149 49.3107Z" fill="url(#paint3_linear_5005_6374)"/>
<path d="M45.4621 59.1756C45.191 58.7943 44.9368 58.378 44.6865 57.9008C43.8915 56.3796 41.5921 57.5857 42.3897 59.1042C42.509 59.3325 42.6322 59.5439 42.7554 59.7526L35.2203 67.2871C33.3476 66.9085 31.3542 67.4868 29.9536 68.8706C27.6853 71.1374 27.684 74.8385 29.9575 77.1261C32.2258 79.3799 35.9272 79.402 38.2032 77.1274C39.5922 75.7502 40.1784 73.7621 39.801 71.874L44.8149 66.8605C46.0288 65.6467 44.1937 63.8143 42.9811 65.0268L37.477 70.5292C37.2059 70.8975 36.9102 71.3125 37.132 71.9258C37.5535 73.093 37.2578 74.4118 36.372 75.2885C35.1114 76.5464 33.0519 76.5464 31.79 75.2911C30.5268 74.0215 30.5255 71.9622 31.7809 70.7081C32.6732 69.825 33.9986 69.5293 35.1568 69.9534C35.516 70.0857 36.1541 70.0195 36.5237 69.6499L45.3064 60.8679C45.7344 60.4399 45.7993 59.6476 45.4621 59.1756Z" fill="url(#paint4_linear_5005_6374)"/>
<path d="M58.3677 44.1286C57.6505 44.1286 57.0643 44.7161 57.0643 45.4319C57.0643 46.1477 57.6505 46.7352 58.3677 46.7352C59.0849 46.7352 59.6711 46.1477 59.6711 45.4319C59.6711 44.7161 59.0849 44.1286 58.3677 44.1286Z" fill="url(#paint5_linear_5005_6374)"/>
<path d="M49.8846 58.4078C49.8846 60.5528 51.6302 62.2983 53.7753 62.2983C55.9204 62.2983 57.6661 60.5528 57.6661 58.4078C57.6661 56.2629 55.9204 54.5174 53.7753 54.5174C51.6302 54.5174 49.8846 56.2616 49.8846 58.4078ZM55.0722 58.4078C55.0722 59.1224 54.4912 59.7047 53.7753 59.7047C53.0594 59.7047 52.4784 59.1224 52.4784 58.4078C52.4784 57.6933 53.0594 57.111 53.7753 57.111C54.4912 57.111 55.0722 57.692 55.0722 58.4078Z" fill="url(#paint6_linear_5005_6374)"/>
<path d="M61.6035 55.8142C63.3919 55.8142 64.8458 54.3592 64.8458 52.5722C64.8458 50.7852 63.3919 49.3301 61.6035 49.3301C59.815 49.3301 58.3612 50.7852 58.3612 52.5722C58.3612 54.3592 59.815 55.8142 61.6035 55.8142ZM61.6035 51.9238C61.9601 51.9238 62.2519 52.2142 62.2519 52.5722C62.2519 52.9301 61.9601 53.2206 61.6035 53.2206C61.2468 53.2206 60.955 52.9301 60.955 52.5722C60.955 52.2142 61.2468 51.9238 61.6035 51.9238Z" fill="url(#paint7_linear_5005_6374)"/>
<defs>
<linearGradient id="paint0_linear_5005_6374" x1="41.5" y1="0" x2="41.5" y2="83" gradientUnits="userSpaceOnUse">
<stop stop-color="#E36E00"/>
<stop offset="1" stop-color="#F8B90D"/>
</linearGradient>
<linearGradient id="paint1_linear_5005_6374" x1="41.5" y1="0" x2="41.5" y2="83" gradientUnits="userSpaceOnUse">
<stop stop-color="#E36E00"/>
<stop offset="1" stop-color="#F8B90D"/>
</linearGradient>
<linearGradient id="paint2_linear_5005_6374" x1="41.5" y1="0" x2="41.5" y2="83" gradientUnits="userSpaceOnUse">
<stop stop-color="#E36E00"/>
<stop offset="1" stop-color="#F8B90D"/>
</linearGradient>
<linearGradient id="paint3_linear_5005_6374" x1="41.5" y1="0" x2="41.5" y2="83" gradientUnits="userSpaceOnUse">
<stop stop-color="#E36E00"/>
<stop offset="1" stop-color="#F8B90D"/>
</linearGradient>
<linearGradient id="paint4_linear_5005_6374" x1="41.5" y1="0" x2="41.5" y2="83" gradientUnits="userSpaceOnUse">
<stop stop-color="#E36E00"/>
<stop offset="1" stop-color="#F8B90D"/>
</linearGradient>
<linearGradient id="paint5_linear_5005_6374" x1="41.5" y1="0" x2="41.5" y2="83" gradientUnits="userSpaceOnUse">
<stop stop-color="#E36E00"/>
<stop offset="1" stop-color="#F8B90D"/>
</linearGradient>
<linearGradient id="paint6_linear_5005_6374" x1="41.5" y1="0" x2="41.5" y2="83" gradientUnits="userSpaceOnUse">
<stop stop-color="#E36E00"/>
<stop offset="1" stop-color="#F8B90D"/>
</linearGradient>
<linearGradient id="paint7_linear_5005_6374" x1="41.5" y1="0" x2="41.5" y2="83" gradientUnits="userSpaceOnUse">
<stop stop-color="#E36E00"/>
<stop offset="1" stop-color="#F8B90D"/>
</linearGradient>
</defs>
</svg>
