<svg width="87" height="83" viewBox="0 0 87 83" fill="none" xmlns="http://www.w3.org/2000/svg">
<path d="M63.2186 61.2135C62.4915 61.2135 61.7627 61.1163 61.0463 60.9183C58.762 60.2854 56.8812 58.6924 55.8875 56.5514C54.1845 52.8847 55.5 48.5073 58.9469 46.3716L69.892 39.588L64.7758 28.8583V38.186C64.7758 38.9179 64.1786 39.5119 63.4426 39.5119C62.7066 39.5119 62.1093 38.9179 62.1093 38.186V22.9675C62.1093 22.3469 62.5413 21.8094 63.1493 21.6733C63.7572 21.5372 64.3794 21.8377 64.6461 22.3982L72.8091 39.519C73.0989 40.1272 72.8838 40.8556 72.3096 41.2127L60.3548 48.6204C58.0456 50.0507 57.1656 52.982 58.3051 55.4376C58.9718 56.8714 60.2304 57.9375 61.7609 58.3618C63.2915 58.7861 64.9234 58.5227 66.2389 57.6387L80.0318 48.3729C83.6067 45.972 84.883 41.4036 83.0663 37.5124L69.9417 9.39312C68.0983 5.44175 64.175 2.79867 59.9424 2.65193H51.022C50.2861 2.65193 49.6888 2.05789 49.6888 1.32596C49.6888 0.594032 50.2861 0 51.022 0H59.9655C59.9797 0 59.9939 0 60.0099 0C65.2469 0.171491 70.0946 3.41922 72.3612 8.27578L85.4857 36.395C87.8553 41.4744 86.1896 47.4341 81.525 50.5687L67.7321 59.8345C66.3829 60.7415 64.8096 61.2118 63.2168 61.2118L63.2186 61.2135Z" fill="url(#paint0_linear_5005_6367)"/>
<path d="M23.3386 61.2135C21.7458 61.2135 20.1726 60.7433 18.8233 59.8363L5.03038 50.5705C0.367563 47.4359 -1.29811 41.4761 1.07152 36.3968L14.196 8.27755C16.4626 3.42099 21.3103 0.171491 26.5473 0C26.5615 0 26.5757 0 26.5917 0H35.5352C36.2711 0 36.8684 0.594032 36.8684 1.32596C36.8684 2.0579 36.2711 2.65193 35.5352 2.65193H26.6148C22.3822 2.79867 18.4589 5.44352 16.6154 9.39312L3.49092 37.5142C1.67415 41.4054 2.95051 45.972 6.5254 48.3747L20.3183 57.6405C21.6338 58.5245 23.2675 58.7879 24.7963 58.3636C26.3268 57.9393 27.5854 56.8732 28.2521 55.4394C29.3933 52.9837 28.5116 50.0525 26.2042 48.6222L14.2494 41.2145C13.6752 40.8573 13.4601 40.129 13.7498 39.5208L21.9129 22.3999C22.1795 21.8395 22.8017 21.5389 23.4097 21.6751C24.0177 21.8112 24.4496 22.3487 24.4496 22.9692V38.1877C24.4496 38.9197 23.8523 39.5137 23.1164 39.5137C22.3804 39.5137 21.7831 38.9197 21.7831 38.1877V28.86L16.667 39.5897L27.6121 46.3734C31.059 48.509 32.3745 52.8847 30.6715 56.5532C29.6777 58.6942 27.797 60.2871 25.5127 60.9201C24.7981 61.1181 24.0674 61.2153 23.3404 61.2153L23.3386 61.2135Z" fill="url(#paint1_linear_5005_6367)"/>
<path d="M23.2318 83C22.4958 83 21.8985 82.406 21.8985 81.674V60.3508C21.8985 59.6188 22.4958 59.0248 23.2318 59.0248C23.9677 59.0248 24.565 59.6188 24.565 60.3508V81.674C24.565 82.406 23.9677 83 23.2318 83Z" fill="url(#paint2_linear_5005_6367)"/>
<path d="M63.4728 83C62.7369 83 62.1396 82.406 62.1396 81.674V60.174C62.1396 59.4421 62.7369 58.848 63.4728 58.848C64.2088 58.848 64.8061 59.4421 64.8061 60.174V81.674C64.8061 82.406 64.2088 83 63.4728 83Z" fill="url(#paint3_linear_5005_6367)"/>
<path d="M34.3351 56.7229C34.2035 56.7229 34.0702 56.7035 33.9369 56.6628C31.2455 55.8266 29.2225 53.7086 28.5256 50.9948C27.9923 48.921 28.3034 46.7641 29.402 44.9236C30.5006 43.0832 32.2534 41.7767 34.3386 41.2463C36.0683 40.8078 37.8477 40.9404 39.485 41.6335C40.1623 41.9199 40.4787 42.6996 40.1889 43.3731C39.9009 44.0467 39.117 44.3597 38.4397 44.0732C37.3447 43.61 36.1554 43.5199 34.9981 43.8151C33.6027 44.1705 32.4294 45.0439 31.6952 46.2761C30.9611 47.5084 30.7531 48.951 31.1086 50.3389C31.5743 52.1546 32.9289 53.5725 34.7315 54.1329C35.4337 54.3504 35.8265 55.0947 35.6061 55.793C35.4283 56.3605 34.9021 56.7247 34.3333 56.7247L34.3351 56.7229Z" fill="url(#paint4_linear_5005_6367)"/>
<path d="M55.8768 52.2712C55.5409 52.2712 55.2031 52.1457 54.9436 51.8929C54.4174 51.3802 54.4085 50.5404 54.924 50.0171C56.2573 48.6646 56.7728 46.7623 56.3017 44.9307C55.9444 43.5429 55.0662 42.376 53.8272 41.6459C52.5882 40.9157 51.1376 40.7088 49.7421 41.0624C49.1253 41.2198 48.5475 41.4779 48.0284 41.8333C47.4205 42.247 46.5921 42.0931 46.1743 41.4903C45.7566 40.8874 45.913 40.0618 46.5192 39.6463C47.2978 39.1159 48.16 38.727 49.0808 38.4936C51.166 37.9632 53.3348 38.2726 55.1853 39.3652C57.0377 40.456 58.3496 42.201 58.8829 44.2748C59.5868 47.0134 58.8171 49.8545 56.8261 51.8752C56.5648 52.1404 56.2199 52.273 55.8733 52.273L55.8768 52.2712Z" fill="url(#paint5_linear_5005_6367)"/>
<path d="M38.1179 67.1485C36.4185 67.1485 35.1492 66.6182 34.2888 66.0683C32.5325 64.9457 31.3432 62.9815 31.025 60.6796C30.9255 59.9548 31.4357 59.2847 32.1645 59.1857C32.8934 59.0867 33.5671 59.5941 33.6667 60.319C33.8818 61.8748 34.6142 63.1247 35.7305 63.8372C36.8842 64.5744 38.4041 64.6911 40.1231 64.1766C40.8271 63.9662 41.5719 64.3623 41.7835 65.0641C41.995 65.766 41.5968 66.505 40.8911 66.7154C39.8654 67.023 38.941 67.1468 38.1179 67.1468V67.1485Z" fill="url(#paint6_linear_5005_6367)"/>
<path d="M37.0762 43.6861C36.9998 43.6861 36.9233 43.679 36.8469 43.6666C36.1216 43.5411 35.6363 42.8551 35.7625 42.1338C36.2621 39.2768 38.4095 36.9679 41.2324 36.2501C42.5337 35.9195 46.4908 34.9135 49.7474 39.1583C50.1936 39.74 50.0816 40.5727 49.495 41.0165C48.9102 41.4602 48.0729 41.3488 47.6267 40.7654C45.7015 38.2549 43.6483 38.3716 41.8919 38.8171C40.084 39.2768 38.7081 40.7566 38.3881 42.5864C38.2762 43.2317 37.7126 43.6861 37.0762 43.6861Z" fill="url(#paint7_linear_5005_6367)"/>
<path d="M46.6703 69.7969C43.1594 69.7969 40.0325 67.5393 38.9925 64.1112C38.7792 63.4093 39.1792 62.6703 39.8832 62.4582C40.5889 62.246 41.332 62.6438 41.5453 63.3439C42.3132 65.8774 44.786 67.4544 47.4294 67.092C50.2523 66.7066 52.2877 64.1943 52.0637 61.3709C52.0051 60.6407 52.5526 60.0025 53.2868 59.9441C54.0192 59.8858 54.6627 60.4303 54.7214 61.1605C55.0591 65.3824 52.0157 69.141 47.792 69.7191C47.4151 69.7704 47.0418 69.7952 46.6721 69.7952L46.6703 69.7969Z" fill="url(#paint8_linear_5005_6367)"/>
<defs>
<linearGradient id="paint0_linear_5005_6367" x1="43.2786" y1="0" x2="43.2786" y2="83" gradientUnits="userSpaceOnUse">
<stop stop-color="#E36E00"/>
<stop offset="1" stop-color="#F8B90D"/>
</linearGradient>
<linearGradient id="paint1_linear_5005_6367" x1="43.2786" y1="0" x2="43.2786" y2="83" gradientUnits="userSpaceOnUse">
<stop stop-color="#E36E00"/>
<stop offset="1" stop-color="#F8B90D"/>
</linearGradient>
<linearGradient id="paint2_linear_5005_6367" x1="43.2786" y1="0" x2="43.2786" y2="83" gradientUnits="userSpaceOnUse">
<stop stop-color="#E36E00"/>
<stop offset="1" stop-color="#F8B90D"/>
</linearGradient>
<linearGradient id="paint3_linear_5005_6367" x1="43.2786" y1="0" x2="43.2786" y2="83" gradientUnits="userSpaceOnUse">
<stop stop-color="#E36E00"/>
<stop offset="1" stop-color="#F8B90D"/>
</linearGradient>
<linearGradient id="paint4_linear_5005_6367" x1="43.2786" y1="0" x2="43.2786" y2="83" gradientUnits="userSpaceOnUse">
<stop stop-color="#E36E00"/>
<stop offset="1" stop-color="#F8B90D"/>
</linearGradient>
<linearGradient id="paint5_linear_5005_6367" x1="43.2786" y1="0" x2="43.2786" y2="83" gradientUnits="userSpaceOnUse">
<stop stop-color="#E36E00"/>
<stop offset="1" stop-color="#F8B90D"/>
</linearGradient>
<linearGradient id="paint6_linear_5005_6367" x1="43.2786" y1="0" x2="43.2786" y2="83" gradientUnits="userSpaceOnUse">
<stop stop-color="#E36E00"/>
<stop offset="1" stop-color="#F8B90D"/>
</linearGradient>
<linearGradient id="paint7_linear_5005_6367" x1="43.2786" y1="0" x2="43.2786" y2="83" gradientUnits="userSpaceOnUse">
<stop stop-color="#E36E00"/>
<stop offset="1" stop-color="#F8B90D"/>
</linearGradient>
<linearGradient id="paint8_linear_5005_6367" x1="43.2786" y1="0" x2="43.2786" y2="83" gradientUnits="userSpaceOnUse">
<stop stop-color="#E36E00"/>
<stop offset="1" stop-color="#F8B90D"/>
</linearGradient>
</defs>
</svg>
