<svg width="90" height="83" viewBox="0 0 90 83" fill="none" xmlns="http://www.w3.org/2000/svg">
<path d="M3.8958 52.0959C3.39902 52.0959 2.92441 51.8107 2.70666 51.3301C0.552648 46.5701 -0.322256 41.6265 0.105417 36.6373C0.510924 31.9086 2.12904 27.2906 4.78635 23.2833C7.67966 18.9205 11.7673 15.3222 16.606 12.8791C21.7929 10.2601 27.6212 9.00725 33.9255 9.15702C35.8631 9.2013 37.6807 9.61934 39.3301 10.3981C39.9807 10.7055 40.2584 11.4817 39.9507 12.1328C39.643 12.7827 38.8659 13.0601 38.214 12.7527C36.897 12.1302 35.4341 11.7968 33.8642 11.7617C27.9902 11.621 22.5817 12.7814 17.7821 15.205C13.3463 17.445 9.60419 20.736 6.95992 24.7237C4.54253 28.3689 3.07044 32.565 2.70275 36.8613C2.31419 41.4025 3.11478 45.9099 5.08233 50.2596C5.37831 50.9147 5.08755 51.687 4.43039 51.9826C4.25567 52.0607 4.07313 52.0985 3.8945 52.0985L3.8958 52.0959Z" fill="url(#paint0_linear_5005_6360)"/>
<path d="M3.87363 28.8586C3.223 28.8586 2.66103 28.3728 2.58018 27.7112C1.65182 20.0067 3.34426 13.2854 7.47626 8.27274C10.9915 4.00764 16.0949 1.16988 21.8489 0.281691C26.2313 -0.395516 30.5432 0.157971 33.9894 1.83797C37.7706 3.68205 40.2506 6.79461 40.9717 10.6026C41.106 11.3098 40.6405 11.9909 39.9325 12.1237C39.2245 12.2578 38.5425 11.7929 38.4095 11.0858C37.6859 7.26605 34.9842 5.2201 32.8459 4.17824C29.873 2.72876 26.1087 2.25862 22.2479 2.85508C17.1289 3.64559 12.5979 6.15647 9.49076 9.92669C5.82294 14.3767 4.32869 20.4182 5.171 27.3986C5.25705 28.1123 4.74724 28.7609 4.03271 28.8468C3.97925 28.8533 3.92709 28.8559 3.87494 28.8559L3.87363 28.8586Z" fill="url(#paint1_linear_5005_6360)"/>
<path d="M31.2252 70.4105C31.1143 70.4105 31.0009 70.3961 30.8888 70.3662C28.8156 69.8153 25.3147 69.8153 23.2415 70.3662C22.5452 70.5511 21.8307 70.1383 21.6455 69.4428C21.4604 68.7474 21.8737 68.035 22.57 67.8488C25.0904 67.1794 29.0385 67.1794 31.559 67.8488C32.2552 68.0337 32.6686 68.7474 32.4834 69.4428C32.3282 70.0263 31.8002 70.4105 31.2239 70.4105H31.2252Z" fill="url(#paint2_linear_5005_6360)"/>
<path d="M16.7117 53.1013C15.3517 53.1013 14.0726 52.5686 13.1103 51.6023C12.6031 51.0918 12.6057 50.2674 13.1169 49.7608C13.628 49.2542 14.4533 49.2568 14.9605 49.7673C15.4286 50.2388 16.0506 50.4979 16.7117 50.4979C17.3727 50.4979 17.9934 50.2388 18.4615 49.7673C18.9687 49.2568 19.794 49.2542 20.3051 49.7608C20.8163 50.2674 20.8189 51.0918 20.3117 51.6023C19.3507 52.5686 18.0716 53.1013 16.7104 53.1013H16.7117Z" fill="url(#paint3_linear_5005_6360)"/>
<path d="M12.6175 61.1861C12.135 61.1861 11.6722 60.9178 11.4453 60.4568C11.1284 59.8109 11.3957 59.0308 12.0425 58.7143C12.6892 58.3978 13.4754 58.6622 13.7923 59.3082C14.1091 59.9541 13.847 60.7316 13.2003 61.0481L13.1899 61.0533C13.0047 61.1431 12.8091 61.1861 12.6162 61.1861H12.6175Z" fill="url(#paint4_linear_5005_6360)"/>
<path d="M15.5734 68.3228C15.2396 68.3228 14.9058 68.1952 14.6515 67.9412C14.143 67.432 14.143 66.6077 14.6515 66.0998C15.1613 65.5906 15.9893 65.5893 16.4978 66.0972C17.0063 66.6064 17.0089 67.4281 16.5004 67.936L16.4952 67.9412C16.241 68.1952 15.9072 68.3228 15.5734 68.3228Z" fill="url(#paint5_linear_5005_6360)"/>
<path d="M22.6978 61.1965C22.5035 61.1965 22.3066 61.1535 22.1215 61.0611C21.476 60.7433 21.21 59.9619 21.5295 59.3173C21.8476 58.6726 22.6326 58.4017 23.278 58.7208C23.9234 59.0386 24.1907 59.8148 23.8726 60.4594L23.8674 60.4698C23.6405 60.9295 23.1776 61.1965 22.6978 61.1965Z" fill="url(#paint6_linear_5005_6360)"/>
<path d="M22.3835 44.1361C22.0471 44.1361 21.7107 44.0072 21.4552 43.7493C20.9493 43.2375 20.9545 42.4131 21.4669 41.9078L21.4773 41.8974C21.9898 41.3921 22.8151 41.3973 23.321 41.9091C23.8269 42.4209 23.8217 43.2453 23.3093 43.7506L23.2989 43.761C23.0446 44.0111 22.7134 44.1361 22.3835 44.1361Z" fill="url(#paint7_linear_5005_6360)"/>
<path d="M17.3088 25.2225C16.8759 25.2225 16.4522 25.0063 16.2044 24.613C15.8211 24.0048 16.0036 23.2 16.6139 22.8171C20.0457 20.6591 24.4737 19.9442 30.5484 20.5667C31.2643 20.6396 31.7858 21.279 31.7128 21.9953C31.6398 22.7103 30.9983 23.2312 30.2825 23.1583C24.8179 22.5996 20.9154 23.1908 18.0025 25.0219C17.7874 25.1574 17.5461 25.2225 17.3088 25.2225Z" fill="url(#paint8_linear_5005_6360)"/>
<path d="M26.689 83C23.5153 83 19.4133 81.2953 15.3413 78.2674C11.238 75.2173 7.81396 71.3624 5.94681 67.6886C3.84495 63.5537 2.63625 58.9695 2.62712 55.103C2.62191 55.0339 2.6193 55.0053 2.61669 54.9831C2.60018 54.8538 2.59192 54.1996 2.59192 53.0205V50.7923C2.59192 50.6308 2.62321 50.4706 2.68189 50.3195C4.6025 45.398 7.7905 41.2541 11.9029 38.3369C12.4897 37.9201 13.3046 38.0582 13.7205 38.6442C14.1378 39.2303 13.9996 40.0442 13.4128 40.4596C9.77892 43.0382 6.94297 46.6926 5.19968 51.0397V53.0205C5.19968 54.0793 5.19838 54.5417 5.20229 54.651C5.21142 54.7253 5.22054 54.8086 5.23098 54.9766C5.23228 55.004 5.23358 55.0313 5.23358 55.0574C5.23358 58.5372 6.34058 62.7098 8.27032 66.5074C11.8495 73.5464 21.4773 80.6741 27.0006 80.3849C27.0475 80.3823 27.0932 80.3823 27.1401 80.3849C32.6594 80.6793 42.286 73.5464 45.8704 66.5061C46.5106 65.2402 47.0595 63.9483 47.4989 62.6668C47.7323 61.9857 48.4742 61.625 49.1548 61.8581C49.8355 62.0912 50.1992 62.8322 49.9645 63.5121C49.486 64.9055 48.8901 66.3094 48.1952 67.6834C46.3228 71.3598 42.8988 75.216 38.7968 78.2648C34.5592 81.4151 30.2903 83.1355 27.0697 82.9883C26.9445 82.9935 26.8167 82.9974 26.6876 82.9974L26.689 83ZM17.7965 37.9201C17.2762 37.9201 16.786 37.6076 16.5826 37.0957C16.3179 36.4263 16.6465 35.6697 17.3167 35.4066C20.6533 34.0913 24.3276 33.4597 27.9407 33.5795C28.6604 33.6029 29.225 34.2059 29.2002 34.9248C29.1768 35.6437 28.5757 36.2076 27.8533 36.1828C24.5936 36.0747 21.2818 36.6438 18.2737 37.8303C18.1172 37.8928 17.9543 37.9214 17.7952 37.9214L17.7965 37.9201Z" fill="url(#paint9_linear_5005_6360)"/>
<path d="M32.4912 62.5601C32.014 62.5601 31.555 62.2983 31.3256 61.8425C31.0022 61.2004 31.2604 60.4164 31.9045 60.0935C32.5473 59.7705 33.3361 60.027 33.6608 60.6691C33.9842 61.3111 33.7299 62.0925 33.0871 62.4155L33.0767 62.4207C32.8889 62.5158 32.6881 62.5601 32.4912 62.5601Z" fill="url(#paint10_linear_5005_6360)"/>
<path d="M57.7996 59.0151C44.3318 59.0151 33.3753 48.0717 33.3753 34.6187C33.3753 21.1657 44.3318 10.2171 57.7996 10.2171C71.2674 10.2171 82.2291 21.1631 82.2291 34.6187C82.2291 48.0743 71.27 59.0151 57.7996 59.0151ZM57.7996 12.8231C45.77 12.8231 35.983 22.6009 35.983 34.62C35.983 46.6392 45.77 56.4118 57.7996 56.4118C69.8292 56.4118 79.6213 46.6366 79.6213 34.62C79.6213 22.6035 69.8318 12.8231 57.7996 12.8231Z" fill="url(#paint11_linear_5005_6360)"/>
<path d="M80.8509 37.7821H69.2463C65.9945 37.7821 64.3438 35.3949 62.8873 33.2878C61.4413 31.1962 60.1922 29.3899 57.5727 29.3899C54.9532 29.3899 53.7015 31.1962 52.2555 33.2891C50.8003 35.3949 49.1509 37.7821 45.899 37.7821H34.7522C34.0324 37.7821 33.4483 37.1986 33.4483 36.4797C33.4483 35.7609 34.0324 35.1774 34.7522 35.1774H45.899C47.6919 35.1774 48.6672 33.8972 50.1093 31.8096C51.6557 29.5709 53.5802 26.7853 57.5727 26.7853C61.5652 26.7853 63.4858 29.5696 65.0322 31.807C66.4769 33.8959 67.4522 35.1761 69.2463 35.1761H80.8509C81.5706 35.1761 82.1548 35.7596 82.1548 36.4784C82.1548 37.1973 81.5706 37.7808 80.8509 37.7808V37.7821Z" fill="url(#paint12_linear_5005_6360)"/>
<path d="M57.7996 23.3458C57.0798 23.3458 56.4957 22.7624 56.4957 22.0435V19.6459C56.4957 18.927 57.0798 18.3436 57.7996 18.3436C58.5193 18.3436 59.1035 18.927 59.1035 19.6459V22.0435C59.1035 22.7624 58.5193 23.3458 57.7996 23.3458Z" fill="url(#paint13_linear_5005_6360)"/>
<path d="M51.743 25.8515C51.4092 25.8515 51.0754 25.7239 50.8212 25.4699L49.1261 23.7769C48.6163 23.2677 48.6163 22.4433 49.1261 21.9354C49.6347 21.4262 50.4613 21.4262 50.9698 21.9354L52.6649 23.6284C53.1747 24.1376 53.1747 24.962 52.6649 25.4699C52.4106 25.7239 52.0768 25.8515 51.743 25.8515Z" fill="url(#paint14_linear_5005_6360)"/>
<path d="M63.86 25.8515C63.5262 25.8515 63.1924 25.7239 62.9382 25.4699C62.4283 24.9607 62.4283 24.1363 62.9382 23.6284L64.6332 21.9354C65.143 21.4262 65.9684 21.4262 66.4769 21.9354C66.9867 22.4446 66.9867 23.269 66.4769 23.7769L64.7819 25.4699C64.5276 25.7239 64.1938 25.8515 63.86 25.8515Z" fill="url(#paint15_linear_5005_6360)"/>
<path d="M57.7996 44.8693C55.0862 44.8693 52.8787 42.2269 52.8787 38.9802C52.8787 35.7335 55.0862 33.0859 57.7996 33.0859C60.5129 33.0859 62.7256 35.7296 62.7256 38.9802C62.7256 42.2308 60.5156 44.8693 57.7996 44.8693ZM57.7996 35.6905C56.5452 35.6905 55.4865 37.1973 55.4865 38.9802C55.4865 40.7631 56.5452 42.2647 57.7996 42.2647C59.0539 42.2647 60.1179 40.7605 60.1179 38.9802C60.1179 37.1999 59.0565 35.6905 57.7996 35.6905Z" fill="url(#paint16_linear_5005_6360)"/>
<path d="M57.7996 65.7924C49.4652 65.7924 41.6275 62.5496 35.7327 56.6618C29.8365 50.774 26.5899 42.9445 26.5899 34.6187C26.5899 26.293 29.8365 18.4634 35.7327 12.5756C41.6275 6.68782 49.4652 3.44503 57.7996 3.44503C66.134 3.44503 73.9755 6.68782 79.8717 12.5756C85.7678 18.4634 89.0145 26.2917 89.0145 34.6187C89.0145 42.9458 85.9934 50.1971 80.5093 56.0068C80.0151 56.5303 79.1897 56.555 78.6656 56.0615C78.1414 55.5679 78.118 54.7435 78.6108 54.22C83.6373 48.8961 86.4067 41.9339 86.4067 34.6187C86.4067 27.3036 83.4313 19.8126 78.0267 14.4171C72.6234 9.02158 65.439 6.04968 57.7996 6.04968C42.0278 6.04968 29.1976 18.8658 29.1976 34.6187C29.1976 50.3716 42.0278 63.1878 57.7996 63.1878C63.8339 63.1878 69.6101 61.3307 74.5023 57.817C75.0877 57.3976 75.9014 57.5305 76.3225 58.1139C76.7424 58.6974 76.6094 59.5113 76.0252 59.932C70.6871 63.766 64.3855 65.7924 57.8009 65.7924H57.7996Z" fill="url(#paint17_linear_5005_6360)"/>
<defs>
<linearGradient id="paint0_linear_5005_6360" x1="44.5072" y1="0" x2="44.5072" y2="83" gradientUnits="userSpaceOnUse">
<stop stop-color="#E36E00"/>
<stop offset="1" stop-color="#F8B90D"/>
</linearGradient>
<linearGradient id="paint1_linear_5005_6360" x1="44.5072" y1="0" x2="44.5072" y2="83" gradientUnits="userSpaceOnUse">
<stop stop-color="#E36E00"/>
<stop offset="1" stop-color="#F8B90D"/>
</linearGradient>
<linearGradient id="paint2_linear_5005_6360" x1="44.5072" y1="0" x2="44.5072" y2="83" gradientUnits="userSpaceOnUse">
<stop stop-color="#E36E00"/>
<stop offset="1" stop-color="#F8B90D"/>
</linearGradient>
<linearGradient id="paint3_linear_5005_6360" x1="44.5072" y1="0" x2="44.5072" y2="83" gradientUnits="userSpaceOnUse">
<stop stop-color="#E36E00"/>
<stop offset="1" stop-color="#F8B90D"/>
</linearGradient>
<linearGradient id="paint4_linear_5005_6360" x1="44.5072" y1="0" x2="44.5072" y2="83" gradientUnits="userSpaceOnUse">
<stop stop-color="#E36E00"/>
<stop offset="1" stop-color="#F8B90D"/>
</linearGradient>
<linearGradient id="paint5_linear_5005_6360" x1="44.5072" y1="0" x2="44.5072" y2="83" gradientUnits="userSpaceOnUse">
<stop stop-color="#E36E00"/>
<stop offset="1" stop-color="#F8B90D"/>
</linearGradient>
<linearGradient id="paint6_linear_5005_6360" x1="44.5072" y1="0" x2="44.5072" y2="83" gradientUnits="userSpaceOnUse">
<stop stop-color="#E36E00"/>
<stop offset="1" stop-color="#F8B90D"/>
</linearGradient>
<linearGradient id="paint7_linear_5005_6360" x1="44.5072" y1="0" x2="44.5072" y2="83" gradientUnits="userSpaceOnUse">
<stop stop-color="#E36E00"/>
<stop offset="1" stop-color="#F8B90D"/>
</linearGradient>
<linearGradient id="paint8_linear_5005_6360" x1="44.5072" y1="0" x2="44.5072" y2="83" gradientUnits="userSpaceOnUse">
<stop stop-color="#E36E00"/>
<stop offset="1" stop-color="#F8B90D"/>
</linearGradient>
<linearGradient id="paint9_linear_5005_6360" x1="44.5072" y1="0" x2="44.5072" y2="83" gradientUnits="userSpaceOnUse">
<stop stop-color="#E36E00"/>
<stop offset="1" stop-color="#F8B90D"/>
</linearGradient>
<linearGradient id="paint10_linear_5005_6360" x1="44.5072" y1="0" x2="44.5072" y2="83" gradientUnits="userSpaceOnUse">
<stop stop-color="#E36E00"/>
<stop offset="1" stop-color="#F8B90D"/>
</linearGradient>
<linearGradient id="paint11_linear_5005_6360" x1="44.5072" y1="0" x2="44.5072" y2="83" gradientUnits="userSpaceOnUse">
<stop stop-color="#E36E00"/>
<stop offset="1" stop-color="#F8B90D"/>
</linearGradient>
<linearGradient id="paint12_linear_5005_6360" x1="44.5072" y1="0" x2="44.5072" y2="83" gradientUnits="userSpaceOnUse">
<stop stop-color="#E36E00"/>
<stop offset="1" stop-color="#F8B90D"/>
</linearGradient>
<linearGradient id="paint13_linear_5005_6360" x1="44.5072" y1="0" x2="44.5072" y2="83" gradientUnits="userSpaceOnUse">
<stop stop-color="#E36E00"/>
<stop offset="1" stop-color="#F8B90D"/>
</linearGradient>
<linearGradient id="paint14_linear_5005_6360" x1="44.5072" y1="0" x2="44.5072" y2="83" gradientUnits="userSpaceOnUse">
<stop stop-color="#E36E00"/>
<stop offset="1" stop-color="#F8B90D"/>
</linearGradient>
<linearGradient id="paint15_linear_5005_6360" x1="44.5072" y1="0" x2="44.5072" y2="83" gradientUnits="userSpaceOnUse">
<stop stop-color="#E36E00"/>
<stop offset="1" stop-color="#F8B90D"/>
</linearGradient>
<linearGradient id="paint16_linear_5005_6360" x1="44.5072" y1="0" x2="44.5072" y2="83" gradientUnits="userSpaceOnUse">
<stop stop-color="#E36E00"/>
<stop offset="1" stop-color="#F8B90D"/>
</linearGradient>
<linearGradient id="paint17_linear_5005_6360" x1="44.5072" y1="0" x2="44.5072" y2="83" gradientUnits="userSpaceOnUse">
<stop stop-color="#E36E00"/>
<stop offset="1" stop-color="#F8B90D"/>
</linearGradient>
</defs>
</svg>
